<svg width="174" height="632" viewBox="0 0 174 632" fill="none" xmlns="http://www.w3.org/2000/svg">
<path d="M24.9037 49.8074C38.6576 49.8074 49.8074 38.6576 49.8074 24.9037C49.8074 11.1498 38.6576 0 24.9037 0C11.1498 0 0 11.1498 0 24.9037C0 38.6576 11.1498 49.8074 24.9037 49.8074Z" fill="white" fill-opacity="0.5"/>
<path d="M78.585 42.613C88.3655 42.613 96.2942 34.6842 96.2942 24.9037C96.2942 15.1231 88.3655 7.1944 78.585 7.1944C68.8044 7.1944 60.8757 15.1231 60.8757 24.9037C60.8757 34.6842 68.8044 42.613 78.585 42.613Z" fill="white" fill-opacity="0.5"/>
<path d="M145.548 461.548C155.329 461.548 163.257 453.619 163.257 443.839C163.257 434.058 155.329 426.13 145.548 426.13C135.768 426.13 127.839 434.058 127.839 443.839C127.839 453.619 135.768 461.548 145.548 461.548Z" fill="white" fill-opacity="0.5"/>
<path d="M152.743 598.795C162.523 598.795 170.452 590.866 170.452 581.086C170.452 571.305 162.523 563.377 152.743 563.377C142.962 563.377 135.033 571.305 135.033 581.086C135.033 590.866 142.962 598.795 152.743 598.795Z" fill="white" fill-opacity="0.5"/>
<path d="M133.373 49.8074C147.127 49.8074 158.277 38.6576 158.277 24.9037C158.277 11.1498 147.127 0 133.373 0C119.619 0 108.469 11.1498 108.469 24.9037C108.469 38.6576 119.619 49.8074 133.373 49.8074Z" fill="white" fill-opacity="0.5"/>
<path d="M59.7689 200.336C73.5228 200.336 84.6725 189.186 84.6725 175.433C84.6725 161.679 73.5228 150.529 59.7689 150.529C46.0149 150.529 34.8652 161.679 34.8652 175.433C34.8652 189.186 46.0149 200.336 59.7689 200.336Z" fill="white" fill-opacity="0.5"/>
<path d="M113.45 187.054C127.204 187.054 138.354 175.905 138.354 162.151C138.354 148.397 127.204 137.247 113.45 137.247C99.6961 137.247 88.5464 148.397 88.5464 162.151C88.5464 175.905 99.6961 187.054 113.45 187.054Z" fill="white" fill-opacity="0.5"/>
<path d="M83.5657 327.068C97.3196 327.068 108.469 315.795 108.469 301.888C108.469 287.981 97.3196 276.708 83.5657 276.708C69.8117 276.708 58.662 287.981 58.662 301.888C58.662 315.795 69.8117 327.068 83.5657 327.068Z" fill="white" fill-opacity="0.5"/>
<path d="M155.51 348.651C177.822 348.651 195.909 330.44 195.909 307.975C195.909 285.511 177.822 267.299 155.51 267.299C133.198 267.299 115.11 285.511 115.11 307.975C115.11 330.44 133.198 348.651 155.51 348.651Z" fill="white" fill-opacity="0.5"/>
<path d="M104.872 273.387C127.337 273.387 145.548 255.3 145.548 232.988C145.548 210.676 127.337 192.588 104.872 192.588C82.4075 192.588 64.1962 210.676 64.1962 232.988C64.1962 255.3 82.4075 273.387 104.872 273.387Z" fill="white" fill-opacity="0.5"/>
<path d="M78.5849 140.014C103.953 140.014 124.518 119.449 124.518 94.0806C124.518 68.7122 103.953 48.1471 78.5849 48.1471C53.2166 48.1471 32.6515 68.7122 32.6515 94.0806C32.6515 119.449 53.2166 140.014 78.5849 140.014Z" fill="white" fill-opacity="0.5"/>
<path d="M64.4728 632C99.4689 632 127.839 603.506 127.839 568.357C127.839 533.208 99.4689 504.715 64.4728 504.715C29.4767 504.715 1.10681 533.208 1.10681 568.357C1.10681 603.506 29.4767 632 64.4728 632Z" fill="white" fill-opacity="0.5"/>
<path d="M92.4203 382.963C106.174 382.963 117.324 371.69 117.324 357.783C117.324 343.876 106.174 332.602 92.4203 332.602C78.6664 332.602 67.5167 343.876 67.5167 357.783C67.5167 371.69 78.6664 382.963 92.4203 382.963Z" fill="white" fill-opacity="0.5"/>
<path d="M152.743 415.061C166.496 415.061 177.646 403.912 177.646 390.158C177.646 376.404 166.496 365.254 152.743 365.254C138.989 365.254 127.839 376.404 127.839 390.158C127.839 403.912 138.989 415.061 152.743 415.061Z" fill="white" fill-opacity="0.5"/>
<path d="M92.1436 447.713C107.884 447.713 120.644 434.829 120.644 418.935C120.644 403.042 107.884 390.158 92.1436 390.158C76.403 390.158 63.6427 403.042 63.6427 418.935C63.6427 434.829 76.403 447.713 92.1436 447.713Z" fill="white" fill-opacity="0.5"/>
<path d="M53.6813 493.646C67.4352 493.646 78.5849 482.496 78.5849 468.743C78.5849 454.989 67.4352 443.839 53.6813 443.839C39.9273 443.839 28.7776 454.989 28.7776 468.743C28.7776 482.496 39.9273 493.646 53.6813 493.646Z" fill="white" fill-opacity="0.5"/>
<path d="M113.45 505.268C127.204 505.268 138.354 494.118 138.354 480.364C138.354 466.61 127.204 455.461 113.45 455.461C99.6961 455.461 88.5464 466.61 88.5464 480.364C88.5464 494.118 99.6961 505.268 113.45 505.268Z" fill="white" fill-opacity="0.5"/>
<path d="M152.743 552.862C166.496 552.862 177.646 541.712 177.646 527.958C177.646 514.204 166.496 503.054 152.743 503.054C138.989 503.054 127.839 514.204 127.839 527.958C127.839 541.712 138.989 552.862 152.743 552.862Z" fill="white" fill-opacity="0.5"/>
</svg>
