<svg width="157" height="634" viewBox="0 0 157 634" fill="none" xmlns="http://www.w3.org/2000/svg">
<path d="M132.085 50.6836C118.324 50.6836 107.169 39.5287 107.169 25.7683C107.169 12.008 118.324 0.853088 132.085 0.853088C145.845 0.853088 157 12.008 157 25.7683C157 39.5287 145.845 50.6836 132.085 50.6836Z" fill="white" fill-opacity="0.5"/>
<path d="M78.3785 43.4859C68.5934 43.4859 60.661 35.5535 60.661 25.7683C60.661 15.9832 68.5934 8.05083 78.3785 8.05083C88.1636 8.05083 96.096 15.9832 96.096 25.7683C96.096 35.5535 88.1636 43.4859 78.3785 43.4859Z" fill="white" fill-opacity="0.5"/>
<path d="M11.3842 462.616C1.59906 462.616 -6.33334 454.683 -6.33334 444.898C-6.33334 435.113 1.59906 427.181 11.3842 427.181C21.1693 427.181 29.1017 435.113 29.1017 444.898C29.1017 454.683 21.1693 462.616 11.3842 462.616Z" fill="white" fill-opacity="0.5"/>
<path d="M4.18642 599.927C-5.5987 599.927 -13.5311 591.994 -13.5311 582.209C-13.5311 572.424 -5.5987 564.492 4.18642 564.492C13.9715 564.492 21.9039 572.424 21.9039 582.209C21.9039 591.994 13.9715 599.927 4.18642 599.927Z" fill="white" fill-opacity="0.5"/>
<path d="M23.565 50.6836C9.80466 50.6836 -1.35028 39.5287 -1.35028 25.7683C-1.35028 12.008 9.80466 0.853088 23.565 0.853088C37.3253 0.853088 48.4802 12.008 48.4802 25.7683C48.4802 39.5287 37.3253 50.6836 23.565 50.6836Z" fill="white" fill-opacity="0.5"/>
<path d="M97.2034 201.282C83.4431 201.282 72.2881 190.128 72.2881 176.367C72.2881 162.607 83.4431 151.452 97.2034 151.452C110.964 151.452 122.119 162.607 122.119 176.367C122.119 190.128 110.964 201.282 97.2034 201.282Z" fill="white" fill-opacity="0.5"/>
<path d="M43.4972 187.994C29.7369 187.994 18.582 176.839 18.582 163.079C18.582 149.319 29.7369 138.164 43.4972 138.164C57.2575 138.164 68.4125 149.319 68.4125 163.079C68.4125 176.839 57.2575 187.994 43.4972 187.994Z" fill="white" fill-opacity="0.5"/>
<path d="M73.3955 328.073C59.6352 328.073 48.4802 316.795 48.4802 302.881C48.4802 288.968 59.6352 277.689 73.3955 277.689C87.1558 277.689 98.3107 288.968 98.3107 302.881C98.3107 316.795 87.1558 328.073 73.3955 328.073Z" fill="white" fill-opacity="0.5"/>
<path d="M1.41804 349.667C-20.9043 349.667 -39 331.447 -39 308.972C-39 286.497 -20.9043 268.277 1.41804 268.277C23.7403 268.277 41.8361 286.497 41.8361 308.972C41.8361 331.447 23.7403 349.667 1.41804 349.667Z" fill="white" fill-opacity="0.5"/>
<path d="M52.0791 274.367C29.6039 274.367 11.3842 256.271 11.3842 233.949C11.3842 211.627 29.6039 193.531 52.0791 193.531C74.5542 193.531 92.774 211.627 92.774 233.949C92.774 256.271 74.5542 274.367 52.0791 274.367Z" fill="white" fill-opacity="0.5"/>
<path d="M78.3785 140.932C52.9984 140.932 32.4237 120.358 32.4237 94.9774C32.4237 69.5973 52.9984 49.0226 78.3785 49.0226C103.759 49.0226 124.333 69.5973 124.333 94.9774C124.333 120.358 103.759 140.932 78.3785 140.932Z" fill="white" fill-opacity="0.5"/>
<path d="M92.4972 633.147C57.4849 633.147 29.1017 604.64 29.1017 569.475C29.1017 534.309 57.4849 505.802 92.4972 505.802C127.51 505.802 155.893 534.309 155.893 569.475C155.893 604.64 127.51 633.147 92.4972 633.147Z" fill="white" fill-opacity="0.5"/>
<path d="M64.5367 383.994C50.7764 383.994 39.6215 372.715 39.6215 358.802C39.6215 344.889 50.7764 333.61 64.5367 333.61C78.297 333.61 89.452 344.889 89.452 358.802C89.452 372.715 78.297 383.994 64.5367 383.994Z" fill="white" fill-opacity="0.5"/>
<path d="M4.18643 416.107C-9.57388 416.107 -20.7288 404.952 -20.7288 391.192C-20.7288 377.432 -9.57388 366.277 4.18643 366.277C17.9467 366.277 29.1017 377.432 29.1017 391.192C29.1017 404.952 17.9467 416.107 4.18643 416.107Z" fill="white" fill-opacity="0.5"/>
<path d="M64.8136 448.774C49.0657 448.774 36.2994 435.884 36.2994 419.983C36.2994 404.082 49.0657 391.192 64.8136 391.192C80.5615 391.192 93.3277 404.082 93.3277 419.983C93.3277 435.884 80.5615 448.774 64.8136 448.774Z" fill="white" fill-opacity="0.5"/>
<path d="M103.294 494.729C89.5335 494.729 78.3785 483.574 78.3785 469.814C78.3785 456.053 89.5335 444.898 103.294 444.898C117.054 444.898 128.209 456.053 128.209 469.814C128.209 483.574 117.054 494.729 103.294 494.729Z" fill="white" fill-opacity="0.5"/>
<path d="M43.4972 506.356C29.7369 506.356 18.582 495.201 18.582 481.441C18.582 467.68 29.7369 456.525 43.4972 456.525C57.2575 456.525 68.4125 467.68 68.4125 481.441C68.4125 495.201 57.2575 506.356 43.4972 506.356Z" fill="white" fill-opacity="0.5"/>
<path d="M4.18643 553.972C-9.57388 553.972 -20.7288 542.817 -20.7288 529.056C-20.7288 515.296 -9.57388 504.141 4.18643 504.141C17.9467 504.141 29.1017 515.296 29.1017 529.056C29.1017 542.817 17.9467 553.972 4.18643 553.972Z" fill="white" fill-opacity="0.5"/>
</svg>
