<svg width="149" height="37" viewBox="0 0 149 37" fill="none" xmlns="http://www.w3.org/2000/svg">
<g id="Group 73361">
<g id="Group">
<path id="Subtract" d="M10.9741 35.9378C15.524 38.1759 21.2674 36.5884 25.484 34.0084C29.8596 31.3313 33.3797 27.3682 36.5674 23.4035C38.1854 21.3917 39.5347 19.0056 39.5896 16.4231C39.6993 11.2799 34.5958 8.16308 30.7126 5.84893C26.2595 3.19529 21.3473 1.30954 16.2575 0.325035C11.1371 -0.665936 5.00549 0.512559 2.0567 5.19825C-2.46897 12.3889 1.35138 22.9234 5.10475 29.6177C6.10705 31.4056 7.27317 33.1305 8.8097 34.4852C9.49 35.085 10.2155 35.5643 10.9741 35.9378Z" fill="#76E2F4"/>
<g id="Group_2">
<path id="Vector" d="M10.9483 9.983C11.4051 9.983 11.7754 9.61206 11.7754 9.15449C11.7754 8.69692 11.4051 8.32599 10.9483 8.32599C10.4914 8.32599 10.1211 8.69692 10.1211 9.15449C10.1211 9.61206 10.4914 9.983 10.9483 9.983Z" fill="#0A0A0A"/>
<path id="Vector_2" d="M12.7349 9.74051C13.058 9.74051 13.3199 9.47814 13.3199 9.1545C13.3199 8.83085 13.058 8.56848 12.7349 8.56848C12.4117 8.56848 12.1498 8.83085 12.1498 9.1545C12.1498 9.47814 12.4117 9.74051 12.7349 9.74051Z" fill="#0A0A0A"/>
<path id="Vector_3" d="M14.9518 23.6537C15.2749 23.6537 15.5369 23.3913 15.5369 23.0677C15.5369 22.744 15.2749 22.4817 14.9518 22.4817C14.6286 22.4817 14.3667 22.744 14.3667 23.0677C14.3667 23.3913 14.6286 23.6537 14.9518 23.6537Z" fill="#0A0A0A"/>
<path id="Vector_4" d="M15.1938 28.2052C15.517 28.2052 15.7789 27.9429 15.7789 27.6192C15.7789 27.2956 15.517 27.0332 15.1938 27.0332C14.8707 27.0332 14.6088 27.2956 14.6088 27.6192C14.6088 27.9429 14.8707 28.2052 15.1938 28.2052Z" fill="#0A0A0A"/>
<path id="Vector_5" d="M21.4788 29.1453C21.8019 29.1453 22.0639 28.8829 22.0639 28.5593C22.0639 28.2356 21.8019 27.9732 21.4788 27.9732C21.1557 27.9732 20.8937 28.2356 20.8937 28.5593C20.8937 28.8829 21.1557 29.1453 21.4788 29.1453Z" fill="#0A0A0A"/>
<path id="Vector_6" d="M22.3851 11.4493C22.7082 11.4493 22.9701 11.1869 22.9701 10.8632C22.9701 10.5396 22.7082 10.2772 22.3851 10.2772C22.0619 10.2772 21.8 10.5396 21.8 10.8632C21.8 11.1869 22.0619 11.4493 22.3851 11.4493Z" fill="#0A0A0A"/>
<path id="Vector_7" d="M20.9938 23.1671C21.317 23.1671 21.5789 22.9047 21.5789 22.5811C21.5789 22.2575 21.317 21.9951 20.9938 21.9951C20.6707 21.9951 20.4088 22.2575 20.4088 22.5811C20.4088 22.9047 20.6707 23.1671 20.9938 23.1671Z" fill="#0A0A0A"/>
<path id="Vector_8" d="M20.1666 26.0172C20.4897 26.0172 20.7517 25.7548 20.7517 25.4311C20.7517 25.1075 20.4897 24.8451 20.1666 24.8451C19.8435 24.8451 19.5815 25.1075 19.5815 25.4311C19.5815 25.7548 19.8435 26.0172 20.1666 26.0172Z" fill="#0A0A0A"/>
<path id="Vector_9" d="M14.5539 9.983C15.0108 9.983 15.3811 9.61206 15.3811 9.15449C15.3811 8.69692 15.0108 8.32599 14.5539 8.32599C14.0971 8.32599 13.7267 8.69692 13.7267 9.15449C13.7267 9.61206 14.0971 9.983 14.5539 9.983Z" fill="#0A0A0A"/>
<path id="Vector_10" d="M12.1064 14.975C12.5632 14.975 12.9335 14.6041 12.9335 14.1465C12.9335 13.689 12.5632 13.318 12.1064 13.318C11.6495 13.318 11.2792 13.689 11.2792 14.1465C11.2792 14.6041 11.6495 14.975 12.1064 14.975Z" fill="#0A0A0A"/>
<path id="Vector_11" d="M13.8922 14.5329C14.349 14.5329 14.7194 14.162 14.7194 13.7044C14.7194 13.2468 14.349 12.8759 13.8922 12.8759C13.4353 12.8759 13.065 13.2468 13.065 13.7044C13.065 14.162 13.4353 14.5329 13.8922 14.5329Z" fill="#0A0A0A"/>
<path id="Vector_12" d="M12.9004 19.1798C13.3573 19.1798 13.7276 18.8088 13.7276 18.3513C13.7276 17.8937 13.3573 17.5228 12.9004 17.5228C12.4436 17.5228 12.0732 17.8937 12.0732 18.3513C12.0732 18.8088 12.4436 19.1798 12.9004 19.1798Z" fill="#0A0A0A"/>
<path id="Vector_13" d="M15.2818 19.8976C16.0248 19.8976 16.6271 19.2943 16.6271 18.5501C16.6271 17.806 16.0248 17.2027 15.2818 17.2027C14.5388 17.2027 13.9365 17.806 13.9365 18.5501C13.9365 19.2943 14.5388 19.8976 15.2818 19.8976Z" fill="#0A0A0A"/>
<path id="Vector_14" d="M13.6064 17.4128C14.3494 17.4128 14.9517 16.8096 14.9517 16.0654C14.9517 15.3213 14.3494 14.718 13.6064 14.718C12.8635 14.718 12.2612 15.3213 12.2612 16.0654C12.2612 16.8096 12.8635 17.4128 13.6064 17.4128Z" fill="#0A0A0A"/>
<path id="Vector_15" d="M12.735 12.9713C13.5747 12.9713 14.2554 12.2895 14.2554 11.4484C14.2554 10.6074 13.5747 9.9256 12.735 9.9256C11.8953 9.9256 11.2146 10.6074 11.2146 11.4484C11.2146 12.2895 11.8953 12.9713 12.735 12.9713Z" fill="#0A0A0A"/>
<path id="Vector_16" d="M12.2604 29.3102C13.4232 29.3102 14.3658 28.366 14.3658 27.2013C14.3658 26.0366 13.4232 25.0925 12.2604 25.0925C11.0976 25.0925 10.1549 26.0366 10.1549 27.2013C10.1549 28.366 11.0976 29.3102 12.2604 29.3102Z" fill="#0A0A0A"/>
<path id="Vector_17" d="M23.8321 29.1598C24.8082 29.1598 25.5994 28.3673 25.5994 27.3896C25.5994 26.412 24.8082 25.6195 23.8321 25.6195C22.856 25.6195 22.0648 26.412 22.0648 27.3896C22.0648 28.3673 22.856 29.1598 23.8321 29.1598Z" fill="#0A0A0A"/>
<path id="Vector_18" d="M22.2399 25.6187C22.9829 25.6187 23.5852 25.0154 23.5852 24.2712C23.5852 23.5271 22.9829 22.9238 22.2399 22.9238C21.497 22.9238 20.8947 23.5271 20.8947 24.2712C20.8947 25.0154 21.497 25.6187 22.2399 25.6187Z" fill="#0A0A0A"/>
<path id="Vector_19" d="M19.3176 22.6813C20.0606 22.6813 20.6629 22.078 20.6629 21.3339C20.6629 20.5897 20.0606 19.9865 19.3176 19.9865C18.5747 19.9865 17.9724 20.5897 17.9724 21.3339C17.9724 22.078 18.5747 22.6813 19.3176 22.6813Z" fill="#0A0A0A"/>
<path id="Vector_20" d="M19.5824 17.2278C20.3254 17.2278 20.9277 16.6245 20.9277 15.8803C20.9277 15.1362 20.3254 14.5329 19.5824 14.5329C18.8394 14.5329 18.2371 15.1362 18.2371 15.8803C18.2371 16.6245 18.8394 17.2278 19.5824 17.2278Z" fill="#0A0A0A"/>
<path id="Vector_21" d="M22.1511 14.2241C22.894 14.2241 23.4963 13.6209 23.4963 12.8767C23.4963 12.1325 22.894 11.5293 22.1511 11.5293C21.4081 11.5293 20.8058 12.1325 20.8058 12.8767C20.8058 13.6209 21.4081 14.2241 22.1511 14.2241Z" fill="#0A0A0A"/>
<path id="Vector_22" d="M23.4962 10.3766C24.2392 10.3766 24.8415 9.77336 24.8415 9.02919C24.8415 8.28503 24.2392 7.68176 23.4962 7.68176C22.7532 7.68176 22.1509 8.28503 22.1509 9.02919C22.1509 9.77336 22.7532 10.3766 23.4962 10.3766Z" fill="#0A0A0A"/>
<path id="Vector_23" d="M13.1869 21.0356C13.6438 21.0356 14.0141 20.6647 14.0141 20.2071C14.0141 19.7496 13.6438 19.3786 13.1869 19.3786C12.7301 19.3786 12.3597 19.7496 12.3597 20.2071C12.3597 20.6647 12.7301 21.0356 13.1869 21.0356Z" fill="#0A0A0A"/>
<path id="Vector_24" d="M15.1939 22.1179C15.6507 22.1179 16.0211 21.747 16.0211 21.2894C16.0211 20.8319 15.6507 20.4609 15.1939 20.4609C14.737 20.4609 14.3667 20.8319 14.3667 21.2894C14.3667 21.747 14.737 22.1179 15.1939 22.1179Z" fill="#0A0A0A"/>
<path id="Vector_25" d="M13.1869 23.1889C13.7106 23.1889 14.1351 22.7637 14.1351 22.2392C14.1351 21.7146 13.7106 21.2894 13.1869 21.2894C12.6632 21.2894 12.2386 21.7146 12.2386 22.2392C12.2386 22.7637 12.6632 23.1889 13.1869 23.1889Z" fill="#0A0A0A"/>
<path id="Vector_26" d="M11.9077 24.7247C12.3646 24.7247 12.7349 24.3538 12.7349 23.8962C12.7349 23.4386 12.3646 23.0677 11.9077 23.0677C11.4509 23.0677 11.0806 23.4386 11.0806 23.8962C11.0806 24.3538 11.4509 24.7247 11.9077 24.7247Z" fill="#0A0A0A"/>
<path id="Vector_27" d="M13.8922 25.0998C14.349 25.0998 14.7194 24.7288 14.7194 24.2713C14.7194 23.8137 14.349 23.4427 13.8922 23.4427C13.4353 23.4427 13.065 23.8137 13.065 24.2713C13.065 24.7288 13.4353 25.0998 13.8922 25.0998Z" fill="#0A0A0A"/>
<path id="Vector_28" d="M17.6632 18.1419C18.1201 18.1419 18.4904 17.771 18.4904 17.3134C18.4904 16.8559 18.1201 16.4849 17.6632 16.4849C17.2064 16.4849 16.8361 16.8559 16.8361 17.3134C16.8361 17.771 17.2064 18.1419 17.6632 18.1419Z" fill="#0A0A0A"/>
<path id="Vector_29" d="M17.6632 20.2071C18.1201 20.2071 18.4904 19.8362 18.4904 19.3786C18.4904 18.921 18.1201 18.5501 17.6632 18.5501C17.2064 18.5501 16.8361 18.921 16.8361 19.3786C16.8361 19.8362 17.2064 20.2071 17.6632 20.2071Z" fill="#0A0A0A"/>
<path id="Vector_30" d="M19.6929 24.7247C20.1497 24.7247 20.5201 24.3538 20.5201 23.8962C20.5201 23.4386 20.1497 23.0677 19.6929 23.0677C19.2361 23.0677 18.8657 23.4386 18.8657 23.8962C18.8657 24.3538 19.2361 24.7247 19.6929 24.7247Z" fill="#0A0A0A"/>
<path id="Vector_31" d="M20.9937 27.5109C21.4506 27.5109 21.8209 27.14 21.8209 26.6824C21.8209 26.2248 21.4506 25.8539 20.9937 25.8539C20.5369 25.8539 20.1666 26.2248 20.1666 26.6824C20.1666 27.14 20.5369 27.5109 20.9937 27.5109Z" fill="#0A0A0A"/>
<path id="Vector_32" d="M26.4192 29.1671C26.8761 29.1671 27.2464 28.7962 27.2464 28.3386C27.2464 27.881 26.8761 27.5101 26.4192 27.5101C25.9624 27.5101 25.592 27.881 25.592 28.3386C25.592 28.7962 25.9624 29.1671 26.4192 29.1671Z" fill="#0A0A0A"/>
<path id="Vector_33" d="M15.1939 26.6824C15.6507 26.6824 16.0211 26.3115 16.0211 25.8539C16.0211 25.3963 15.6507 25.0254 15.1939 25.0254C14.737 25.0254 14.3667 25.3963 14.3667 25.8539C14.3667 26.3115 14.737 26.6824 15.1939 26.6824Z" fill="#0A0A0A"/>
<path id="Vector_34" d="M19.8915 14.4084C20.3483 14.4084 20.7187 14.0375 20.7187 13.5799C20.7187 13.1223 20.3483 12.7514 19.8915 12.7514C19.4347 12.7514 19.0643 13.1223 19.0643 13.5799C19.0643 14.0375 19.4347 14.4084 19.8915 14.4084Z" fill="#0A0A0A"/>
<path id="Vector_35" d="M21.8 15.966C22.2569 15.966 22.6272 15.5951 22.6272 15.1375C22.6272 14.6799 22.2569 14.309 21.8 14.309C21.3432 14.309 20.9728 14.6799 20.9728 15.1375C20.9728 15.5951 21.3432 15.966 21.8 15.966Z" fill="#0A0A0A"/>
<path id="Vector_36" d="M24.0814 12.1654C24.5383 12.1654 24.9086 11.7945 24.9086 11.3369C24.9086 10.8793 24.5383 10.5084 24.0814 10.5084C23.6246 10.5084 23.2543 10.8793 23.2543 11.3369C23.2543 11.7945 23.6246 12.1654 24.0814 12.1654Z" fill="#0A0A0A"/>
<path id="Vector_37" d="M25.8681 11.4484C26.325 11.4484 26.6953 11.0775 26.6953 10.6199C26.6953 10.1623 26.325 9.79141 25.8681 9.79141C25.4113 9.79141 25.041 10.1623 25.041 10.6199C25.041 11.0775 25.4113 11.4484 25.8681 11.4484Z" fill="#0A0A0A"/>
</g>
</g>
<g id="Group_3">
<g id="Group_4">
<path id="Vector_38" d="M44.3705 30.4156C44.3705 28.6843 45.673 27.53 47.2443 27.53C47.9706 27.53 48.8785 27.7749 49.47 28.6924L48.8228 29.1507C48.412 28.5816 47.8124 28.3836 47.2677 28.3836C46.1702 28.3836 45.2865 29.1822 45.2865 30.4156C45.2865 31.6491 46.1782 32.4477 47.2758 32.4477C47.8286 32.4477 48.4128 32.2497 48.8228 31.6806L49.47 32.1389C48.8777 33.0564 47.9698 33.3013 47.2443 33.3013C45.673 33.3013 44.3705 32.147 44.3705 30.4156Z" fill="#89E3F5"/>
<path id="Vector_39" d="M53.8359 29.1111V33.2229H52.9595V32.6142C52.7303 32.9933 52.3042 33.3021 51.6489 33.3021C50.7967 33.3021 50.0777 32.7726 50.0777 31.5311V29.1119H50.946V31.3888C50.946 32.1082 51.3487 32.5116 51.9483 32.5116C52.5479 32.5116 52.9587 32.1082 52.9587 31.3888V29.1119H53.8351L53.8359 29.1111Z" fill="#89E3F5"/>
<path id="Vector_40" d="M54.4805 32.1705L55.1907 31.9724C55.2779 32.32 55.5377 32.5973 55.9646 32.5973C56.2882 32.5973 56.6038 32.4316 56.6038 32.0678C56.6038 31.8067 56.4302 31.6483 56.0356 31.4907L55.5934 31.325C54.9147 31.0639 54.6306 30.6452 54.6306 30.1627C54.6306 29.4667 55.2383 29.0319 55.9807 29.0319C56.6836 29.0319 57.1961 29.419 57.3381 30.0204L56.6514 30.2023C56.5327 29.8701 56.3044 29.7278 56.0203 29.7278C55.7048 29.7278 55.4836 29.9016 55.4836 30.1707C55.4836 30.3841 55.6176 30.566 55.9888 30.7002L56.3915 30.8586C56.9596 31.072 57.4729 31.3646 57.4729 32.0686C57.4729 32.8907 56.7781 33.3021 55.9727 33.3021C55.1673 33.3021 54.6072 32.8987 54.4805 32.1713V32.1705Z" fill="#89E3F5"/>
<path id="Vector_41" d="M59.2945 29.8143V32.0678C59.2945 32.3046 59.4203 32.4865 59.744 32.4865C59.8384 32.4865 59.9731 32.4703 60.1232 32.4154V33.1032C59.9731 33.2293 59.7052 33.2689 59.4841 33.2689C58.8603 33.2689 58.418 32.961 58.418 32.2254V29.8143H57.8499V29.1102H58.418V28.0587H59.2945V29.1102H60.1232V29.8143H59.2945Z" fill="#89E3F5"/>
<path id="Vector_42" d="M60.4516 31.1666C60.4516 29.7828 61.533 29.0319 62.599 29.0319C63.6651 29.0319 64.7465 29.7828 64.7465 31.1666C64.7465 32.5504 63.6651 33.3013 62.599 33.3013C61.533 33.3013 60.4516 32.5504 60.4516 31.1666ZM63.8773 31.1666C63.8773 30.3203 63.2696 29.8305 62.5982 29.8305C61.9268 29.8305 61.3111 30.3203 61.3111 31.1666C61.3111 32.0129 61.9268 32.5027 62.5982 32.5027C63.2696 32.5027 63.8773 32.0129 63.8773 31.1666Z" fill="#89E3F5"/>
<path id="Vector_43" d="M71.6254 30.819V33.2229H70.749V30.8667C70.749 30.2023 70.4254 29.8232 69.8807 29.8232C69.3359 29.8232 68.9647 30.2031 68.9647 30.8667V33.2229H68.0883V30.8667C68.0883 30.2023 67.7647 29.8232 67.22 29.8232C66.6752 29.8232 66.2959 30.2031 66.2959 30.8667V33.2229H65.4276V29.1111H66.2959V29.6963C66.509 29.3325 66.8964 29.0319 67.5113 29.0319C68.0479 29.0319 68.5055 29.2687 68.7589 29.7828C68.98 29.3794 69.4295 29.0319 70.1324 29.0319C70.9927 29.0319 71.6246 29.5775 71.6246 30.819H71.6254Z" fill="#89E3F5"/>
<path id="Vector_44" d="M76.335 31.4988H73.1143C73.2483 32.2101 73.8091 32.5738 74.5112 32.5738C74.9535 32.5738 75.3481 32.4316 75.6483 32.147L76.0591 32.5738C75.704 33.0168 75.1116 33.3013 74.4168 33.3013C73.3039 33.3013 72.2936 32.5342 72.2936 31.1666C72.2936 29.7989 73.312 29.0319 74.3539 29.0319C75.3957 29.0319 76.5328 29.7747 76.335 31.4988ZM73.1062 30.8505H75.5611C75.5135 30.1392 74.9454 29.7755 74.3611 29.7755C73.7768 29.7755 73.2321 30.1231 73.1062 30.8505Z" fill="#89E3F5"/>
<path id="Vector_45" d="M79.4445 29.0634V29.8935C79.3573 29.8773 79.2863 29.87 79.1919 29.87C78.4107 29.87 77.8813 30.4391 77.8813 31.3007V33.2221H77.013V29.1103H77.8813V30.1699C78.0234 29.5532 78.4341 29.031 79.1838 29.031C79.2783 29.031 79.3573 29.0391 79.4445 29.0626V29.0634Z" fill="#89E3F5"/>
<path id="Vector_46" d="M81.8436 30.4156C81.8436 28.6843 83.1461 27.53 84.7174 27.53C85.4437 27.53 86.3515 27.7749 86.9431 28.6924L86.2959 29.1507C85.8851 28.5816 85.2855 28.3836 84.7408 28.3836C83.6432 28.3836 82.7596 29.1822 82.7596 30.4156C82.7596 31.6491 83.6513 32.4477 84.7488 32.4477C85.3016 32.4477 85.8859 32.2497 86.2959 31.6806L86.9431 32.1389C86.3507 33.0564 85.4429 33.3013 84.7174 33.3013C83.1461 33.3013 81.8436 32.147 81.8436 30.4156Z" fill="#89E3F5"/>
<path id="Vector_47" d="M91.447 31.4988H88.2263C88.3603 32.2101 88.9211 32.5738 89.6232 32.5738C90.0655 32.5738 90.4601 32.4316 90.7603 32.147L91.1711 32.5738C90.816 33.0168 90.2236 33.3013 89.5288 33.3013C88.4159 33.3013 87.4056 32.5342 87.4056 31.1666C87.4056 29.7989 88.424 29.0319 89.4659 29.0319C90.5077 29.0319 91.6448 29.7747 91.447 31.4988ZM88.2182 30.8505H90.6731C90.6255 30.1392 90.0574 29.7755 89.4731 29.7755C88.8888 29.7755 88.3441 30.1231 88.2182 30.8505Z" fill="#89E3F5"/>
<path id="Vector_48" d="M95.8822 30.8028V33.2221H95.0058V30.9451C95.0058 30.2257 94.6112 29.8224 94.0035 29.8224C93.3958 29.8224 92.9932 30.2257 92.9932 30.9451V33.2221H92.1248V29.1103H92.9932V29.727C93.2143 29.3471 93.6484 29.031 94.3118 29.031C95.1567 29.031 95.883 29.5605 95.883 30.802L95.8822 30.8028Z" fill="#89E3F5"/>
<path id="Vector_49" d="M97.8199 29.8143V32.0678C97.8199 32.3046 97.9458 32.4865 98.2694 32.4865C98.3638 32.4865 98.4986 32.4703 98.6487 32.4154V33.1032C98.4986 33.2293 98.2307 33.2689 98.0095 33.2689C97.3857 33.2689 96.9435 32.961 96.9435 32.2254V29.8143H96.3754V29.1102H96.9435V28.0587H97.8199V29.1102H98.6487V29.8143H97.8199Z" fill="#89E3F5"/>
<path id="Vector_50" d="M101.742 29.0634V29.8935C101.655 29.8773 101.584 29.87 101.489 29.87C100.708 29.87 100.179 30.4391 100.179 31.3007V33.2221H99.3103V29.1103H100.179V30.1699C100.321 29.5532 100.731 29.031 101.481 29.031C101.576 29.031 101.655 29.0391 101.742 29.0626V29.0634Z" fill="#89E3F5"/>
<path id="Vector_51" d="M102.291 27.6084H103.16V28.3917H102.291V27.6084ZM102.291 29.1111H103.16V33.2229H102.291V29.1111Z" fill="#89E3F5"/>
<path id="Vector_52" d="M103.839 31.1666C103.839 29.7828 104.913 29.0319 105.987 29.0319C106.705 29.0319 107.368 29.3722 107.747 30.0438L107.1 30.4472C106.863 30.0681 106.46 29.8305 105.995 29.8305C105.331 29.8305 104.7 30.3203 104.7 31.1666C104.7 32.0129 105.332 32.5027 105.995 32.5027C106.46 32.5027 106.863 32.2659 107.1 31.886L107.747 32.2893C107.368 32.9537 106.705 33.3013 105.987 33.3013C104.913 33.3013 103.839 32.5504 103.839 31.1666Z" fill="#89E3F5"/>
<path id="Vector_53" d="M110.146 30.4156C110.146 28.6843 111.449 27.53 113.02 27.53C113.746 27.53 114.654 27.7749 115.245 28.6924L114.598 29.1507C114.187 28.5816 113.588 28.3836 113.043 28.3836C111.946 28.3836 111.062 29.1822 111.062 30.4156C111.062 31.6491 111.954 32.4477 113.051 32.4477C113.604 32.4477 114.188 32.2497 114.598 31.6806L115.245 32.1389C114.653 33.0564 113.745 33.3013 113.02 33.3013C111.449 33.3013 110.146 32.147 110.146 30.4156Z" fill="#89E3F5"/>
<path id="Vector_54" d="M115.708 31.1666C115.708 29.7828 116.789 29.0319 117.855 29.0319C118.921 29.0319 120.003 29.7828 120.003 31.1666C120.003 32.5504 118.921 33.3013 117.855 33.3013C116.789 33.3013 115.708 32.5504 115.708 31.1666ZM119.134 31.1666C119.134 30.3203 118.526 29.8305 117.854 29.8305C117.183 29.8305 116.567 30.3203 116.567 31.1666C116.567 32.0129 117.183 32.5027 117.854 32.5027C118.526 32.5027 119.134 32.0129 119.134 31.1666Z" fill="#89E3F5"/>
<path id="Vector_55" d="M124.442 30.8028V33.2221H123.566V30.9451C123.566 30.2257 123.171 29.8224 122.563 29.8224C121.956 29.8224 121.553 30.2257 121.553 30.9451V33.2221H120.685V29.1103H121.553V29.727C121.774 29.3471 122.208 29.031 122.872 29.031C123.717 29.031 124.443 29.5605 124.443 30.802L124.442 30.8028Z" fill="#89E3F5"/>
<path id="Vector_56" d="M125.055 32.1705L125.766 31.9724C125.853 32.32 126.113 32.5973 126.539 32.5973C126.863 32.5973 127.179 32.4316 127.179 32.0678C127.179 31.8067 127.005 31.6483 126.611 31.4907L126.168 31.325C125.49 31.0639 125.206 30.6452 125.206 30.1627C125.206 29.4667 125.813 29.0319 126.556 29.0319C127.259 29.0319 127.771 29.419 127.913 30.0204L127.226 30.2023C127.108 29.8701 126.879 29.7278 126.595 29.7278C126.28 29.7278 126.059 29.9016 126.059 30.1707C126.059 30.3841 126.192 30.566 126.564 30.7002L126.966 30.8586C127.535 31.072 128.048 31.3646 128.048 32.0686C128.048 32.8907 127.353 33.3021 126.548 33.3021C125.742 33.3021 125.182 32.8987 125.055 32.1713V32.1705Z" fill="#89E3F5"/>
<path id="Vector_57" d="M132.414 29.1111V33.2229H131.538V32.6142C131.309 32.9933 130.883 33.3021 130.227 33.3021C129.375 33.3021 128.656 32.7726 128.656 31.5311V29.1119H129.525V31.3888C129.525 32.1082 129.927 32.5116 130.527 32.5116C131.126 32.5116 131.537 32.1082 131.537 31.3888V29.1119H132.414L132.414 29.1111Z" fill="#89E3F5"/>
<path id="Vector_58" d="M133.304 27.6084H134.172V33.222H133.304V27.6084Z" fill="#89E3F5"/>
<path id="Vector_59" d="M136.201 29.8143V32.0678C136.201 32.3046 136.327 32.4865 136.65 32.4865C136.745 32.4865 136.88 32.4703 137.03 32.4154V33.1032C136.88 33.2293 136.612 33.2689 136.391 33.2689C135.767 33.2689 135.325 32.961 135.325 32.2254V29.8143H134.756V29.1102H135.325V28.0587H136.201V29.1102H137.03V29.8143H136.201Z" fill="#89E3F5"/>
<path id="Vector_60" d="M137.718 27.6084H138.586V28.3917H137.718V27.6084ZM137.718 29.1111H138.586V33.2229H137.718V29.1111Z" fill="#89E3F5"/>
<path id="Vector_61" d="M143.225 30.8028V33.2221H142.349V30.9451C142.349 30.2257 141.954 29.8224 141.346 29.8224C140.739 29.8224 140.336 30.2257 140.336 30.9451V33.2221H139.468V29.1103H140.336V29.727C140.557 29.3471 140.991 29.031 141.655 29.031C142.5 29.031 143.226 29.5605 143.226 30.802L143.225 30.8028Z" fill="#89E3F5"/>
<path id="Vector_62" d="M148.191 29.1111V32.9456C148.191 34.4636 147.016 34.8669 146.076 34.8669C145.563 34.8669 145.097 34.7481 144.876 34.5978V33.8784C145.066 34.0045 145.469 34.1314 145.926 34.1314C146.723 34.1314 147.323 33.7677 147.323 32.9925V32.5657H147.275C147.133 32.8899 146.62 33.3013 145.878 33.3013C144.916 33.3013 143.889 32.5819 143.889 31.1666C143.889 29.7512 144.916 29.0319 145.878 29.0319C146.62 29.0319 147.133 29.4433 147.275 29.7674H147.323V29.1111H148.191ZM147.346 31.1666C147.346 30.2807 146.707 29.8224 146.044 29.8224C145.381 29.8224 144.749 30.2807 144.749 31.1666C144.749 32.0525 145.389 32.5108 146.044 32.5108C146.699 32.5108 147.346 32.0525 147.346 31.1666Z" fill="#89E3F5"/>
</g>
<g id="Group_5">
<path id="Vector_63" d="M59.2848 21.6416H57.0785C57.0534 21.6416 57.03 21.6279 57.0171 21.6036C56.2666 20.1204 55.3612 18.7204 54.3161 17.4223C52.9151 15.6821 51.2785 14.1519 49.4523 12.8708L49.4369 12.8878L46.8037 15.9326V21.5713C46.8037 21.6101 46.7714 21.6408 46.7343 21.6408H44.5392C44.5005 21.6408 44.4698 21.6101 44.4698 21.5713V2.41145C44.4698 2.37346 44.5005 2.34193 44.5392 2.34193H46.7343C46.7722 2.34193 46.8037 2.37427 46.8037 2.41145V12.8352L55.7655 2.36618C55.7792 2.35082 55.7985 2.34113 55.8179 2.34113H58.3479C58.4076 2.34113 58.4399 2.41064 58.4003 2.45671L50.8468 11.2316L50.8089 11.276C52.7303 12.6445 54.4541 14.2708 55.9365 16.1113C57.2891 17.7893 58.4237 19.6257 59.3203 21.5818C59.3332 21.6093 59.313 21.6416 59.2824 21.6416H59.2848Z" fill="#89E3F5"/>
<path id="Vector_64" d="M71.9281 15.4169H60.3121C60.6647 18.3801 62.9179 19.9563 65.6318 19.9563C67.2612 19.9563 68.7598 19.3768 69.7895 18.2961C69.8161 18.2678 69.8613 18.267 69.888 18.2953L70.9338 19.3679C70.9589 19.3937 70.9605 19.4341 70.9379 19.4624C69.6604 21.0095 67.6429 21.9148 65.3873 21.9148C61.5879 21.9148 58.1412 19.2781 58.1412 14.5755C58.1412 9.87281 61.6154 7.23615 65.1702 7.23615C68.7251 7.23615 72.4978 9.81865 71.9281 15.4185V15.4169ZM60.3121 13.6775H69.9194C69.7564 10.7692 67.5581 9.2197 65.1969 9.2197C62.8356 9.2197 60.6647 10.7151 60.3121 13.6775Z" fill="#89E3F5"/>
<path id="Vector_65" d="M104.694 7.50692H106.835C106.874 7.50692 106.904 7.53844 106.904 7.57644V21.5729C106.904 21.6117 106.873 21.6424 106.835 21.6424H104.694C104.655 21.6424 104.625 21.6109 104.625 21.5729V7.57644C104.625 7.53764 104.656 7.50692 104.694 7.50692ZM107.164 3.40239C107.164 4.17674 106.537 4.80479 105.764 4.80479C104.991 4.80479 104.364 4.17674 104.364 3.40239C104.364 2.62805 104.991 2 105.764 2C106.537 2 107.164 2.62805 107.164 3.40239Z" fill="#89E3F5"/>
<path id="Vector_66" d="M109.101 14.5747C109.101 9.84453 112.765 7.23535 116.429 7.23535C118.85 7.23535 121.138 8.38394 122.421 10.6544C122.439 10.6876 122.428 10.7304 122.396 10.7498L120.776 11.7125C120.744 11.7319 120.702 11.7214 120.682 11.6883C119.78 10.2018 118.198 9.32803 116.457 9.32803C113.905 9.32803 111.382 11.2308 111.382 14.5747C111.382 17.9186 113.906 19.8213 116.457 19.8213C118.198 19.8213 119.781 18.9476 120.682 17.4611C120.702 17.4288 120.744 17.4175 120.776 17.4369L122.395 18.3995C122.428 18.4189 122.439 18.4618 122.42 18.4949C121.138 20.7387 118.85 21.914 116.429 21.914C112.765 21.914 109.101 19.304 109.101 14.5747Z" fill="#89E3F5"/>
<path id="Vector_67" d="M123.441 14.5747C123.441 9.84453 127.105 7.23535 130.768 7.23535C134.432 7.23535 138.096 9.84534 138.096 14.5747C138.096 19.304 134.432 21.914 130.768 21.914C127.105 21.914 123.441 19.304 123.441 14.5747ZM135.817 14.5747C135.817 11.2308 133.374 9.32803 130.769 9.32803C128.164 9.32803 125.721 11.2308 125.721 14.5747C125.721 17.9186 128.163 19.8213 130.769 19.8213C133.375 19.8213 135.817 17.9186 135.817 14.5747Z" fill="#89E3F5"/>
<path id="Vector_68" d="M139.184 18.0641L140.954 17.5832C140.991 17.5735 141.028 17.5953 141.038 17.6325C141.434 19.089 142.537 20.0121 144.087 20.0121C145.417 20.0121 146.747 19.3598 146.747 17.8103C146.747 16.6415 145.933 16.0434 144.304 15.3636L143.028 14.8746C140.694 13.9232 139.717 12.537 139.717 10.9325C139.717 8.70322 141.644 7.23535 144.087 7.23535C146.313 7.23535 147.982 8.45669 148.493 10.3222C148.503 10.3586 148.482 10.3974 148.446 10.4087L146.754 10.9147C146.719 10.9252 146.683 10.9066 146.67 10.8727C146.23 9.74188 145.396 9.11141 144.168 9.11141C142.941 9.11141 141.97 9.7637 141.97 10.96C141.97 11.8572 142.54 12.5636 144.005 13.1618L145.146 13.6241C147.371 14.4939 149 15.4727 149 17.8103C149 20.6102 146.639 21.9148 144.088 21.9148C141.537 21.9148 139.59 20.5262 139.133 18.1465C139.126 18.1102 139.148 18.0746 139.184 18.0649V18.0641Z" fill="#89E3F5"/>
<path id="Vector_69" d="M86.0861 21.6424H83.9314C83.8927 21.6424 83.862 21.6109 83.862 21.5729V13.5376C83.862 11.4037 82.1947 9.59719 80.0651 9.53414C77.8523 9.46867 76.0309 11.2526 76.0309 13.4544V21.5729C76.0309 21.6117 75.9994 21.6424 75.9615 21.6424H73.8068C73.768 21.6424 73.7374 21.6109 73.7374 21.5729V13.5643C73.7374 10.0838 76.5804 7.17634 80.0546 7.23535C83.4287 7.29355 86.1555 10.0603 86.1555 13.4536V21.5721C86.1555 21.6109 86.124 21.6416 86.0861 21.6416V21.6424Z" fill="#89E3F5"/>
<path id="Vector_70" d="M98.6053 21.6424H96.4506C96.4118 21.6424 96.3812 21.6109 96.3812 21.5729V13.4544C96.3812 10.049 99.1282 7.27415 102.519 7.23535C102.558 7.23535 102.59 7.26687 102.59 7.30567V9.46382C102.59 9.50181 102.56 9.53172 102.522 9.53253C100.394 9.5689 98.6747 11.314 98.6747 13.4536V21.5721C98.6747 21.6109 98.6432 21.6416 98.6053 21.6416V21.6424Z" fill="#89E3F5"/>
<path id="Vector_71" d="M94.3522 19.4156V21.5737C94.3522 21.6125 94.3199 21.6449 94.2812 21.6441C90.8902 21.6061 88.1431 18.8304 88.1431 15.425V3.88983C88.1431 3.85103 88.1746 3.82031 88.2125 3.82031H90.3672C90.406 3.82031 90.4366 3.85184 90.4366 3.88983V7.45684H93.8712C93.91 7.45684 93.9406 7.48836 93.9406 7.52635V9.33612C93.9406 9.37492 93.9092 9.40564 93.8712 9.40564H90.4366V15.425C90.4366 17.5646 92.1572 19.3097 94.2844 19.3469C94.3223 19.3469 94.3522 19.3776 94.3522 19.4156Z" fill="#89E3F5"/>
</g>
</g>
</g>
</svg>
