<svg width="220" height="53" viewBox="0 0 220 53" fill="none" xmlns="http://www.w3.org/2000/svg">
<g id="Logo Kentricos">
<g id="Group">
<path id="Vector" d="M15.5502 50.9018C21.9974 54.0719 30.1358 51.8234 36.1107 48.169C42.3108 44.3772 47.2989 38.764 51.8158 33.1484C54.1085 30.2989 56.0205 26.9192 56.0983 23.2614C56.2538 15.9767 49.0222 11.5621 43.5196 8.28435C37.2096 4.52577 30.249 1.85482 23.0368 0.460375C15.7812 -0.943224 7.09275 0.725983 2.91434 7.36274C-3.49852 17.5474 1.9149 32.4684 7.23341 41.9501C8.65366 44.4826 10.306 46.9257 12.4833 48.8445C13.4473 49.694 14.4753 50.3729 15.5502 50.9018Z" fill="#89E3F5"/>
<g id="Group_2">
<path id="Vector_2" d="M15.5136 14.1495C16.1609 14.1495 16.6857 13.6241 16.6857 12.976C16.6857 12.3279 16.1609 11.8025 15.5136 11.8025C14.8663 11.8025 14.3415 12.3279 14.3415 12.976C14.3415 13.6241 14.8663 14.1495 15.5136 14.1495Z" fill="white"/>
<path id="Vector_3" d="M18.0454 13.806C18.5032 13.806 18.8744 13.4344 18.8744 12.976C18.8744 12.5176 18.5032 12.146 18.0454 12.146C17.5875 12.146 17.2163 12.5176 17.2163 12.976C17.2163 13.4344 17.5875 13.806 18.0454 13.806Z" fill="white"/>
<path id="Vector_4" d="M21.1866 33.5123C21.6445 33.5123 22.0156 33.1407 22.0156 32.6823C22.0156 32.2239 21.6445 31.8523 21.1866 31.8523C20.7287 31.8523 20.3575 32.2239 20.3575 32.6823C20.3575 33.1407 20.7287 33.5123 21.1866 33.5123Z" fill="white"/>
<path id="Vector_5" d="M21.5297 39.9591C21.9875 39.9591 22.3587 39.5875 22.3587 39.1291C22.3587 38.6707 21.9875 38.2991 21.5297 38.2991C21.0718 38.2991 20.7006 38.6707 20.7006 39.1291C20.7006 39.5875 21.0718 39.9591 21.5297 39.9591Z" fill="white"/>
<path id="Vector_6" d="M30.4354 41.2907C30.8932 41.2907 31.2644 40.919 31.2644 40.4606C31.2644 40.0022 30.8932 39.6306 30.4354 39.6306C29.9775 39.6306 29.6063 40.0022 29.6063 40.4606C29.6063 40.919 29.9775 41.2907 30.4354 41.2907Z" fill="white"/>
<path id="Vector_7" d="M31.7196 16.2262C32.1774 16.2262 32.5486 15.8546 32.5486 15.3962C32.5486 14.9378 32.1774 14.5662 31.7196 14.5662C31.2617 14.5662 30.8905 14.9378 30.8905 15.3962C30.8905 15.8546 31.2617 16.2262 31.7196 16.2262Z" fill="white"/>
<path id="Vector_8" d="M29.7481 32.8231C30.206 32.8231 30.5772 32.4515 30.5772 31.9931C30.5772 31.5347 30.206 31.1631 29.7481 31.1631C29.2902 31.1631 28.9191 31.5347 28.9191 31.9931C28.9191 32.4515 29.2902 32.8231 29.7481 32.8231Z" fill="white"/>
<path id="Vector_9" d="M28.576 36.86C29.0339 36.86 29.4051 36.4884 29.4051 36.03C29.4051 35.5716 29.0339 35.2 28.576 35.2C28.1181 35.2 27.7469 35.5716 27.7469 36.03C27.7469 36.4884 28.1181 36.86 28.576 36.86Z" fill="white"/>
<path id="Vector_10" d="M20.6229 14.1495C21.2702 14.1495 21.795 13.6241 21.795 12.976C21.795 12.3279 21.2702 11.8025 20.6229 11.8025C19.9755 11.8025 19.4507 12.3279 19.4507 12.976C19.4507 13.6241 19.9755 14.1495 20.6229 14.1495Z" fill="white"/>
<path id="Vector_11" d="M17.1546 21.2203C17.8019 21.2203 18.3267 20.6949 18.3267 20.0468C18.3267 19.3987 17.8019 18.8733 17.1546 18.8733C16.5073 18.8733 15.9825 19.3987 15.9825 20.0468C15.9825 20.6949 16.5073 21.2203 17.1546 21.2203Z" fill="white"/>
<path id="Vector_12" d="M19.6852 20.5938C20.3325 20.5938 20.8573 20.0684 20.8573 19.4203C20.8573 18.7722 20.3325 18.2468 19.6852 18.2468C19.0378 18.2468 18.5131 18.7722 18.5131 19.4203C18.5131 20.0684 19.0378 20.5938 19.6852 20.5938Z" fill="white"/>
<path id="Vector_13" d="M18.2798 27.1758C18.9271 27.1758 19.4519 26.6504 19.4519 26.0023C19.4519 25.3542 18.9271 24.8289 18.2798 24.8289C17.6324 24.8289 17.1077 25.3542 17.1077 26.0023C17.1077 26.6504 17.6324 27.1758 18.2798 27.1758Z" fill="white"/>
<path id="Vector_14" d="M21.6543 28.1922C22.7071 28.1922 23.5605 27.3378 23.5605 26.2837C23.5605 25.2297 22.7071 24.3752 21.6543 24.3752C20.6015 24.3752 19.748 25.2297 19.748 26.2837C19.748 27.3378 20.6015 28.1922 21.6543 28.1922Z" fill="white"/>
<path id="Vector_15" d="M19.2803 24.6729C20.3331 24.6729 21.1866 23.8185 21.1866 22.7644C21.1866 21.7104 20.3331 20.856 19.2803 20.856C18.2275 20.856 17.3741 21.7104 17.3741 22.7644C17.3741 23.8185 18.2275 24.6729 19.2803 24.6729Z" fill="white"/>
<path id="Vector_16" d="M18.0454 18.382C19.2352 18.382 20.1998 17.4163 20.1998 16.225C20.1998 15.0338 19.2352 14.0681 18.0454 14.0681C16.8555 14.0681 15.891 15.0338 15.891 16.225C15.891 17.4163 16.8555 18.382 18.0454 18.382Z" fill="white"/>
<path id="Vector_17" d="M17.373 41.5242C19.0207 41.5242 20.3564 40.1869 20.3564 38.5372C20.3564 36.8876 19.0207 35.5503 17.373 35.5503C15.7253 35.5503 14.3895 36.8876 14.3895 38.5372C14.3895 40.1869 15.7253 41.5242 17.373 41.5242Z" fill="white"/>
<path id="Vector_18" d="M33.7699 41.3114C35.153 41.3114 36.2742 40.1888 36.2742 38.8041C36.2742 37.4194 35.153 36.2969 33.7699 36.2969C32.3868 36.2969 31.2656 37.4194 31.2656 38.8041C31.2656 40.1888 32.3868 41.3114 33.7699 41.3114Z" fill="white"/>
<path id="Vector_19" d="M31.5137 36.2957C32.5665 36.2957 33.42 35.4413 33.42 34.3872C33.42 33.3332 32.5665 32.4788 31.5137 32.4788C30.4609 32.4788 29.6075 33.3332 29.6075 34.3872C29.6075 35.4413 30.4609 36.2957 31.5137 36.2957Z" fill="white"/>
<path id="Vector_20" d="M27.373 32.1353C28.4258 32.1353 29.2793 31.2809 29.2793 30.2268C29.2793 29.1728 28.4258 28.3184 27.373 28.3184C26.3203 28.3184 25.4668 29.1728 25.4668 30.2268C25.4668 31.2809 26.3203 32.1353 27.373 32.1353Z" fill="white"/>
<path id="Vector_21" d="M27.7481 24.4107C28.8009 24.4107 29.6544 23.5563 29.6544 22.5022C29.6544 21.4482 28.8009 20.5938 27.7481 20.5938C26.6953 20.5938 25.8419 21.4482 25.8419 22.5022C25.8419 23.5563 26.6953 24.4107 27.7481 24.4107Z" fill="white"/>
<path id="Vector_22" d="M31.3879 20.1566C32.4407 20.1566 33.2942 19.3021 33.2942 18.2481C33.2942 17.1941 32.4407 16.3396 31.3879 16.3396C30.3351 16.3396 29.4817 17.1941 29.4817 18.2481C29.4817 19.3021 30.3351 20.1566 31.3879 20.1566Z" fill="white"/>
<path id="Vector_23" d="M33.2942 14.7071C34.347 14.7071 35.2004 13.8526 35.2004 12.7986C35.2004 11.7446 34.347 10.8901 33.2942 10.8901C32.2414 10.8901 31.3879 11.7446 31.3879 12.7986C31.3879 13.8526 32.2414 14.7071 33.2942 14.7071Z" fill="white"/>
<path id="Vector_24" d="M18.6857 29.8042C19.3331 29.8042 19.8578 29.2789 19.8578 28.6308C19.8578 27.9827 19.3331 27.4573 18.6857 27.4573C18.0384 27.4573 17.5136 27.9827 17.5136 28.6308C17.5136 29.2789 18.0384 29.8042 18.6857 29.8042Z" fill="white"/>
<path id="Vector_25" d="M21.5297 31.3372C22.177 31.3372 22.7018 30.8118 22.7018 30.1637C22.7018 29.5156 22.177 28.9902 21.5297 28.9902C20.8823 28.9902 20.3575 29.5156 20.3575 30.1637C20.3575 30.8118 20.8823 31.3372 21.5297 31.3372Z" fill="white"/>
<path id="Vector_26" d="M18.6857 32.8542C19.4277 32.8542 20.0293 32.252 20.0293 31.509C20.0293 30.7661 19.4277 30.1638 18.6857 30.1638C17.9436 30.1638 17.342 30.7661 17.342 31.509C17.342 32.252 17.9436 32.8542 18.6857 32.8542Z" fill="white"/>
<path id="Vector_27" d="M16.8732 35.0296C17.5206 35.0296 18.0453 34.5042 18.0453 33.8561C18.0453 33.208 17.5206 32.6826 16.8732 32.6826C16.2259 32.6826 15.7011 33.208 15.7011 33.8561C15.7011 34.5042 16.2259 35.0296 16.8732 35.0296Z" fill="white"/>
<path id="Vector_28" d="M19.6852 35.5606C20.3325 35.5606 20.8573 35.0352 20.8573 34.3871C20.8573 33.739 20.3325 33.2136 19.6852 33.2136C19.0378 33.2136 18.5131 33.739 18.5131 34.3871C18.5131 35.0352 19.0378 35.5606 19.6852 35.5606Z" fill="white"/>
<path id="Vector_29" d="M25.0288 25.7056C25.6761 25.7056 26.2009 25.1802 26.2009 24.5321C26.2009 23.884 25.6761 23.3586 25.0288 23.3586C24.3815 23.3586 23.8567 23.884 23.8567 24.5321C23.8567 25.1802 24.3815 25.7056 25.0288 25.7056Z" fill="white"/>
<path id="Vector_30" d="M25.0288 28.6309C25.6761 28.6309 26.2009 28.1055 26.2009 27.4574C26.2009 26.8093 25.6761 26.2839 25.0288 26.2839C24.3815 26.2839 23.8567 26.8093 23.8567 27.4574C23.8567 28.1055 24.3815 28.6309 25.0288 28.6309Z" fill="white"/>
<path id="Vector_31" d="M27.9048 35.0296C28.5521 35.0296 29.0769 34.5042 29.0769 33.8561C29.0769 33.208 28.5521 32.6826 27.9048 32.6826C27.2574 32.6826 26.7327 33.208 26.7327 33.8561C26.7327 34.5042 27.2574 35.0296 27.9048 35.0296Z" fill="white"/>
<path id="Vector_32" d="M29.7481 38.9756C30.3954 38.9756 30.9202 38.4502 30.9202 37.8021C30.9202 37.154 30.3954 36.6287 29.7481 36.6287C29.1008 36.6287 28.576 37.154 28.576 37.8021C28.576 38.4502 29.1008 38.9756 29.7481 38.9756Z" fill="white"/>
<path id="Vector_33" d="M37.436 41.3216C38.0833 41.3216 38.6081 40.7962 38.6081 40.1481C38.6081 39.5 38.0833 38.9746 37.436 38.9746C36.7886 38.9746 36.2639 39.5 36.2639 40.1481C36.2639 40.7962 36.7886 41.3216 37.436 41.3216Z" fill="white"/>
<path id="Vector_34" d="M21.5297 37.8023C22.177 37.8023 22.7018 37.2769 22.7018 36.6288C22.7018 35.9807 22.177 35.4553 21.5297 35.4553C20.8823 35.4553 20.3575 35.9807 20.3575 36.6288C20.3575 37.2769 20.8823 37.8023 21.5297 37.8023Z" fill="white"/>
<path id="Vector_35" d="M28.1861 20.4175C28.8334 20.4175 29.3582 19.8921 29.3582 19.244C29.3582 18.5959 28.8334 18.0706 28.1861 18.0706C27.5387 18.0706 27.014 18.5959 27.014 19.244C27.014 19.8921 27.5387 20.4175 28.1861 20.4175Z" fill="white"/>
<path id="Vector_36" d="M30.8905 22.6238C31.5378 22.6238 32.0626 22.0984 32.0626 21.4503C32.0626 20.8022 31.5378 20.2769 30.8905 20.2769C30.2432 20.2769 29.7184 20.8022 29.7184 21.4503C29.7184 22.0984 30.2432 22.6238 30.8905 22.6238Z" fill="white"/>
<path id="Vector_37" d="M34.1232 17.2405C34.7706 17.2405 35.2953 16.7151 35.2953 16.067C35.2953 15.4189 34.7706 14.8936 34.1232 14.8936C33.4759 14.8936 32.9511 15.4189 32.9511 16.067C32.9511 16.7151 33.4759 17.2405 34.1232 17.2405Z" fill="white"/>
<path id="Vector_38" d="M36.655 16.2251C37.3023 16.2251 37.8271 15.6998 37.8271 15.0517C37.8271 14.4036 37.3023 13.8782 36.655 13.8782C36.0076 13.8782 35.4828 14.4036 35.4828 15.0517C35.4828 15.6998 36.0076 16.2251 36.655 16.2251Z" fill="white"/>
</g>
</g>
<g id="Group_3">
<g id="Group_4">
<path id="Vector_39" d="M71 45.2476C71 42.7953 72.8456 41.1604 75.0721 41.1604C76.1012 41.1604 77.3877 41.5073 78.2259 42.8067L77.3088 43.4558C76.7267 42.6499 75.8771 42.3694 75.1052 42.3694C73.55 42.3694 72.2979 43.5005 72.2979 45.2476C72.2979 46.9946 73.5615 48.1257 75.1167 48.1257C75.9 48.1257 76.7279 47.8452 77.3088 47.0393L78.2259 47.6884C77.3866 48.9878 76.1001 49.3347 75.0721 49.3347C72.8456 49.3347 71 47.6998 71 45.2476Z" fill="#89E3F5"/>
<path id="Vector_40" d="M84.4123 43.3997V49.2236H83.1704V48.3615C82.8457 48.8984 82.2419 49.3358 81.3133 49.3358C80.1058 49.3358 79.0869 48.5859 79.0869 46.8274V43.4008H80.3173V46.6259C80.3173 47.6448 80.888 48.2161 81.7376 48.2161C82.5872 48.2161 83.1693 47.6448 83.1693 46.6259V43.4008H84.4111L84.4123 43.3997Z" fill="#89E3F5"/>
<path id="Vector_41" d="M85.326 47.7331L86.3323 47.4526C86.4558 47.9449 86.824 48.3376 87.4289 48.3376C87.8875 48.3376 88.3346 48.1029 88.3346 47.5877C88.3346 47.2179 88.0887 46.9935 87.5296 46.7703L86.9029 46.5356C85.9412 46.1658 85.5387 45.5727 85.5387 44.8893C85.5387 43.9035 86.3998 43.2876 87.4518 43.2876C88.4478 43.2876 89.1739 43.836 89.3752 44.6878L88.4021 44.9454C88.234 44.4748 87.9103 44.2733 87.5078 44.2733C87.0607 44.2733 86.7474 44.5195 86.7474 44.9007C86.7474 45.2029 86.9372 45.4605 87.4632 45.6506L88.0338 45.875C88.8389 46.1772 89.5662 46.5917 89.5662 47.5888C89.5662 48.7532 88.5816 49.3359 87.4404 49.3359C86.2991 49.3359 85.5055 48.7646 85.326 47.7342V47.7331Z" fill="#89E3F5"/>
<path id="Vector_42" d="M92.1471 44.3958V47.5877C92.1471 47.9231 92.3255 48.1807 92.784 48.1807C92.9178 48.1807 93.1088 48.1578 93.3215 48.08V49.0543C93.1088 49.2329 92.7291 49.2889 92.4158 49.2889C91.5318 49.2889 90.9052 48.8528 90.9052 47.8109V44.3958H90.1002V43.3986H90.9052V41.9092H92.1471V43.3986H93.3215V44.3958H92.1471Z" fill="#89E3F5"/>
<path id="Vector_43" d="M93.7869 46.3112C93.7869 44.3512 95.3192 43.2876 96.8298 43.2876C98.3404 43.2876 99.8727 44.3512 99.8727 46.3112C99.8727 48.2712 98.3404 49.3348 96.8298 49.3348C95.3192 49.3348 93.7869 48.2712 93.7869 46.3112ZM98.6411 46.3112C98.6411 45.1125 97.78 44.4187 96.8286 44.4187C95.8772 44.4187 95.0047 45.1125 95.0047 46.3112C95.0047 47.5098 95.8772 48.2036 96.8286 48.2036C97.78 48.2036 98.6411 47.5098 98.6411 46.3112Z" fill="#89E3F5"/>
<path id="Vector_44" d="M109.62 45.8189V49.2237H108.378V45.8864C108.378 44.9454 107.92 44.4084 107.148 44.4084C106.376 44.4084 105.85 44.9465 105.85 45.8864V49.2237H104.608V45.8864C104.608 44.9454 104.149 44.4084 103.378 44.4084C102.606 44.4084 102.068 44.9465 102.068 45.8864V49.2237H100.838V43.3998H102.068V44.2287C102.37 43.7135 102.919 43.2876 103.79 43.2876C104.551 43.2876 105.199 43.623 105.558 44.3512C105.872 43.7799 106.509 43.2876 107.505 43.2876C108.724 43.2876 109.619 44.0604 109.619 45.8189H109.62Z" fill="#89E3F5"/>
<path id="Vector_45" d="M116.294 46.7817H111.73C111.92 47.7892 112.714 48.3044 113.709 48.3044C114.336 48.3044 114.895 48.1029 115.321 47.6999L115.903 48.3044C115.399 48.9318 114.56 49.3348 113.575 49.3348C111.999 49.3348 110.567 48.2483 110.567 46.3112C110.567 44.3741 112.01 43.2876 113.486 43.2876C114.963 43.2876 116.574 44.3397 116.294 46.7817ZM111.718 45.8635H115.197C115.13 44.8561 114.324 44.3409 113.497 44.3409C112.669 44.3409 111.897 44.8332 111.718 45.8635Z" fill="#89E3F5"/>
<path id="Vector_46" d="M120.7 43.3322V44.5079C120.576 44.485 120.475 44.4747 120.342 44.4747C119.235 44.4747 118.485 45.2807 118.485 46.5011V49.2225H117.254V43.3986H118.485V44.8995C118.686 44.026 119.268 43.2864 120.33 43.2864C120.464 43.2864 120.576 43.2978 120.7 43.331V43.3322Z" fill="#89E3F5"/>
<path id="Vector_47" d="M124.099 45.2476C124.099 42.7953 125.945 41.1604 128.171 41.1604C129.201 41.1604 130.487 41.5073 131.325 42.8067L130.408 43.4558C129.826 42.6499 128.976 42.3694 128.205 42.3694C126.649 42.3694 125.397 43.5005 125.397 45.2476C125.397 46.9946 126.661 48.1257 128.216 48.1257C128.999 48.1257 129.827 47.8452 130.408 47.0393L131.325 47.6884C130.486 48.9878 129.199 49.3347 128.171 49.3347C125.945 49.3347 124.099 47.6998 124.099 45.2476Z" fill="#89E3F5"/>
<path id="Vector_48" d="M137.707 46.7817H133.143C133.333 47.7892 134.128 48.3044 135.123 48.3044C135.749 48.3044 136.309 48.1029 136.734 47.6999L137.316 48.3044C136.813 48.9318 135.974 49.3348 134.989 49.3348C133.412 49.3348 131.98 48.2483 131.98 46.3112C131.98 44.3741 133.424 43.2876 134.9 43.2876C136.376 43.2876 137.987 44.3397 137.707 46.7817ZM133.132 45.8635H136.611C136.543 44.8561 135.738 44.3409 134.91 44.3409C134.082 44.3409 133.31 44.8332 133.132 45.8635Z" fill="#89E3F5"/>
<path id="Vector_49" d="M143.992 45.7959V49.2225H142.75V45.9974C142.75 44.9785 142.191 44.4072 141.33 44.4072C140.469 44.4072 139.898 44.9785 139.898 45.9974V49.2225H138.668V43.3986H139.898V44.2721C140.211 43.734 140.827 43.2864 141.767 43.2864C142.964 43.2864 143.993 44.0363 143.993 45.7948L143.992 45.7959Z" fill="#89E3F5"/>
<path id="Vector_50" d="M146.738 44.3958V47.5877C146.738 47.9231 146.916 48.1807 147.374 48.1807C147.508 48.1807 147.699 48.1578 147.912 48.08V49.0543C147.699 49.2329 147.32 49.2889 147.006 49.2889C146.122 49.2889 145.496 48.8528 145.496 47.8109V44.3958H144.691V43.3986H145.496V41.9092H146.738V43.3986H147.912V44.3958H146.738Z" fill="#89E3F5"/>
<path id="Vector_51" d="M152.295 43.3322V44.5079C152.172 44.485 152.071 44.4747 151.937 44.4747C150.83 44.4747 150.08 45.2807 150.08 46.5011V49.2225H148.85V43.3986H150.08V44.8995C150.281 44.026 150.863 43.2864 151.926 43.2864C152.059 43.2864 152.172 43.2978 152.295 43.331V43.3322Z" fill="#89E3F5"/>
<path id="Vector_52" d="M153.074 41.2715H154.304V42.3809H153.074V41.2715ZM153.074 43.3998H154.304V49.2237H153.074V43.3998Z" fill="#89E3F5"/>
<path id="Vector_53" d="M155.267 46.3112C155.267 44.3512 156.788 43.2876 158.31 43.2876C159.328 43.2876 160.268 43.7696 160.804 44.721L159.887 45.2922C159.552 44.7553 158.981 44.4187 158.321 44.4187C157.381 44.4187 156.487 45.1125 156.487 46.3112C156.487 47.5098 157.383 48.2036 158.321 48.2036C158.981 48.2036 159.552 47.8682 159.887 47.3301L160.804 47.9014C160.268 48.8425 159.328 49.3348 158.31 49.3348C156.789 49.3348 155.267 48.2712 155.267 46.3112Z" fill="#89E3F5"/>
<path id="Vector_54" d="M164.204 45.2476C164.204 42.7953 166.049 41.1604 168.276 41.1604C169.305 41.1604 170.591 41.5073 171.43 42.8067L170.512 43.4558C169.93 42.6499 169.081 42.3694 168.309 42.3694C166.754 42.3694 165.502 43.5005 165.502 45.2476C165.502 46.9946 166.765 48.1257 168.32 48.1257C169.104 48.1257 169.932 47.8452 170.512 47.0393L171.43 47.6884C170.59 48.9878 169.304 49.3347 168.276 49.3347C166.049 49.3347 164.204 47.6998 164.204 45.2476Z" fill="#89E3F5"/>
<path id="Vector_55" d="M172.085 46.3112C172.085 44.3512 173.617 43.2876 175.128 43.2876C176.638 43.2876 178.171 44.3512 178.171 46.3112C178.171 48.2712 176.638 49.3348 175.128 49.3348C173.617 49.3348 172.085 48.2712 172.085 46.3112ZM176.939 46.3112C176.939 45.1125 176.078 44.4187 175.127 44.4187C174.175 44.4187 173.303 45.1125 173.303 46.3112C173.303 47.5098 174.175 48.2036 175.127 48.2036C176.078 48.2036 176.939 47.5098 176.939 46.3112Z" fill="#89E3F5"/>
<path id="Vector_56" d="M184.461 45.7959V49.2225H183.219V45.9974C183.219 44.9785 182.66 44.4072 181.799 44.4072C180.938 44.4072 180.367 44.9785 180.367 45.9974V49.2225H179.137V43.3986H180.367V44.2721C180.681 43.734 181.296 43.2864 182.236 43.2864C183.433 43.2864 184.462 44.0363 184.462 45.7948L184.461 45.7959Z" fill="#89E3F5"/>
<path id="Vector_57" d="M185.33 47.7331L186.336 47.4526C186.46 47.9449 186.828 48.3376 187.433 48.3376C187.892 48.3376 188.339 48.1029 188.339 47.5877C188.339 47.2179 188.093 46.9935 187.534 46.7703L186.907 46.5356C185.945 46.1658 185.543 45.5727 185.543 44.8893C185.543 43.9035 186.404 43.2876 187.456 43.2876C188.452 43.2876 189.178 43.836 189.379 44.6878L188.406 44.9454C188.238 44.4748 187.915 44.2733 187.512 44.2733C187.065 44.2733 186.752 44.5195 186.752 44.9007C186.752 45.2029 186.941 45.4605 187.467 45.6506L188.038 45.875C188.843 46.1772 189.57 46.5917 189.57 47.5888C189.57 48.7532 188.586 49.3359 187.445 49.3359C186.303 49.3359 185.51 48.7646 185.33 47.7342V47.7331Z" fill="#89E3F5"/>
<path id="Vector_58" d="M195.758 43.3997V49.2236H194.516V48.3615C194.191 48.8984 193.587 49.3358 192.659 49.3358C191.451 49.3358 190.433 48.5859 190.433 46.8274V43.4008H191.663V46.6259C191.663 47.6448 192.234 48.2161 193.083 48.2161C193.933 48.2161 194.515 47.6448 194.515 46.6259V43.4008H195.757L195.758 43.3997Z" fill="#89E3F5"/>
<path id="Vector_59" d="M197.018 41.2715H198.248V49.2225H197.018V41.2715Z" fill="#89E3F5"/>
<path id="Vector_60" d="M201.123 44.3958V47.5877C201.123 47.9231 201.302 48.1807 201.76 48.1807C201.894 48.1807 202.085 48.1578 202.298 48.08V49.0543C202.085 49.2329 201.705 49.2889 201.392 49.2889C200.508 49.2889 199.881 48.8528 199.881 47.8109V44.3958H199.076V43.3986H199.881V41.9092H201.123V43.3986H202.298V44.3958H201.123Z" fill="#89E3F5"/>
<path id="Vector_61" d="M203.273 41.2715H204.503V42.3809H203.273V41.2715ZM203.273 43.3998H204.503V49.2237H203.273V43.3998Z" fill="#89E3F5"/>
<path id="Vector_62" d="M211.076 45.7959V49.2225H209.835V45.9974C209.835 44.9785 209.275 44.4072 208.414 44.4072C207.553 44.4072 206.983 44.9785 206.983 45.9974V49.2225H205.752V43.3986H206.983V44.2721C207.296 43.734 207.911 43.2864 208.851 43.2864C210.048 43.2864 211.078 44.0363 211.078 45.7948L211.076 45.7959Z" fill="#89E3F5"/>
<path id="Vector_63" d="M218.114 43.3998V48.831C218.114 50.9811 216.448 51.5523 215.117 51.5523C214.389 51.5523 213.729 51.384 213.416 51.1711V50.1522C213.685 50.3308 214.255 50.5105 214.904 50.5105C216.034 50.5105 216.883 49.9953 216.883 48.8974V48.2929H216.816C216.615 48.752 215.887 49.3348 214.836 49.3348C213.472 49.3348 212.018 48.3158 212.018 46.3112C212.018 44.3065 213.472 43.2876 214.836 43.2876C215.887 43.2876 216.615 43.8703 216.816 44.3294H216.883V43.3998H218.114ZM216.916 46.3112C216.916 45.0564 216.011 44.4073 215.071 44.4073C214.131 44.4073 213.237 45.0564 213.237 46.3112C213.237 47.5659 214.142 48.2151 215.071 48.2151C215.999 48.2151 216.916 47.5659 216.916 46.3112Z" fill="#89E3F5"/>
</g>
<g id="Group_5">
<path id="Vector_64" d="M92.1334 32.8201H89.007C88.9716 32.8201 88.9384 32.8007 88.9201 32.7663C87.8566 30.6655 86.5736 28.6826 85.0928 26.844C83.1076 24.3791 80.7886 22.2119 78.2008 20.3973L78.179 20.4213L74.4477 24.734V32.7205C74.4477 32.7755 74.402 32.819 74.3494 32.819H71.239C71.1841 32.819 71.1407 32.7755 71.1407 32.7205V5.58276C71.1407 5.52895 71.1841 5.4843 71.239 5.4843H74.3494C74.4031 5.4843 74.4477 5.53009 74.4477 5.58276V20.3469L87.1465 5.51864C87.166 5.49689 87.1934 5.48315 87.2208 5.48315H90.8058C90.8904 5.48315 90.9361 5.58161 90.8801 5.64687L80.1768 18.0755L80.123 18.1384C82.8457 20.0767 85.2883 22.3802 87.3889 24.987C89.3055 27.3637 90.9133 29.9649 92.1837 32.7354C92.202 32.7743 92.1734 32.8201 92.13 32.8201H92.1334Z" fill="#89E3F5"/>
<path id="Vector_65" d="M110.049 24.0034H93.5891C94.0888 28.2005 97.2816 30.4329 101.127 30.4329C103.436 30.4329 105.559 29.6121 107.019 28.0814C107.056 28.0413 107.12 28.0402 107.158 28.0802L108.64 29.5995C108.676 29.6361 108.678 29.6934 108.646 29.7334C106.836 31.9247 103.977 33.2069 100.781 33.2069C95.397 33.2069 90.5131 29.4724 90.5131 22.8116C90.5131 16.1508 95.4359 12.4163 100.473 12.4163C105.51 12.4163 110.856 16.0741 110.049 24.0057V24.0034ZM93.5891 21.5397H107.203C106.972 17.4204 103.857 15.2257 100.511 15.2257C97.1649 15.2257 94.0888 17.3437 93.5891 21.5397Z" fill="#89E3F5"/>
<path id="Vector_66" d="M156.478 12.7999H159.512C159.567 12.7999 159.61 12.8446 159.61 12.8984V32.7228C159.61 32.7778 159.566 32.8213 159.512 32.8213H156.478C156.423 32.8213 156.38 32.7766 156.38 32.7228V12.8984C156.38 12.8434 156.424 12.7999 156.478 12.7999ZM159.978 6.98633C159.978 8.08311 159.09 8.97267 157.994 8.97267C156.899 8.97267 156.01 8.08311 156.01 6.98633C156.01 5.88956 156.899 5 157.994 5C159.09 5 159.978 5.88956 159.978 6.98633Z" fill="#89E3F5"/>
<path id="Vector_67" d="M162.723 22.8106C162.723 16.1109 167.914 12.4153 173.106 12.4153C176.538 12.4153 179.78 14.0421 181.597 17.258C181.623 17.305 181.607 17.3657 181.561 17.3931L179.266 18.7567C179.22 18.7841 179.161 18.7693 179.133 18.7223C177.855 16.6169 175.613 15.3793 173.146 15.3793C169.53 15.3793 165.954 18.0743 165.954 22.8106C165.954 27.5469 169.531 30.2419 173.146 30.2419C175.614 30.2419 177.856 29.0043 179.133 26.8989C179.161 26.8531 179.22 26.8371 179.266 26.8646L181.56 28.2281C181.607 28.2556 181.623 28.3163 181.595 28.3632C179.778 31.5413 176.537 33.206 173.106 33.206C167.914 33.206 162.723 29.5092 162.723 22.8106Z" fill="#89E3F5"/>
<path id="Vector_68" d="M183.042 22.8106C183.042 16.1109 188.234 12.4153 193.425 12.4153C198.617 12.4153 203.808 16.112 203.808 22.8106C203.808 29.5092 198.617 33.206 193.425 33.206C188.234 33.206 183.042 29.5092 183.042 22.8106ZM200.579 22.8106C200.579 18.0743 197.118 15.3793 193.426 15.3793C189.735 15.3793 186.272 18.0743 186.272 22.8106C186.272 27.5469 189.734 30.2419 193.426 30.2419C197.119 30.2419 200.579 27.5469 200.579 22.8106Z" fill="#89E3F5"/>
<path id="Vector_69" d="M205.35 27.753L207.859 27.0718C207.911 27.0581 207.964 27.089 207.978 27.1416C208.539 29.2047 210.101 30.5121 212.298 30.5121C214.182 30.5121 216.067 29.5882 216.067 27.3935C216.067 25.738 214.913 24.8908 212.605 23.928L210.798 23.2354C207.489 21.8879 206.106 19.9244 206.106 17.6519C206.106 14.4943 208.836 12.4153 212.298 12.4153C215.453 12.4153 217.818 14.1452 218.541 16.7875C218.555 16.839 218.525 16.894 218.474 16.91L216.077 17.6267C216.028 17.6416 215.977 17.6152 215.958 17.5672C215.334 15.9655 214.153 15.0725 212.413 15.0725C210.674 15.0725 209.298 15.9964 209.298 17.6908C209.298 18.9616 210.106 19.9622 212.182 20.8094L213.798 21.4643C216.952 22.6961 219.26 24.0826 219.26 27.3935C219.26 31.3593 215.914 33.2071 212.299 33.2071C208.684 33.2071 205.925 31.2402 205.278 27.8698C205.267 27.8182 205.299 27.7679 205.35 27.7541V27.753Z" fill="#89E3F5"/>
<path id="Vector_70" d="M130.111 32.8211H127.058C127.003 32.8211 126.959 32.7764 126.959 32.7226V21.3415C126.959 18.3191 124.597 15.7604 121.579 15.6711C118.443 15.5783 115.863 18.105 115.863 21.2236V32.7226C115.863 32.7776 115.818 32.8211 115.764 32.8211H112.711C112.656 32.8211 112.613 32.7764 112.613 32.7226V21.3793C112.613 16.4496 116.641 12.3315 121.564 12.4151C126.345 12.4975 130.209 16.4164 130.209 21.2225V32.7215C130.209 32.7764 130.165 32.8199 130.111 32.8199V32.8211Z" fill="#89E3F5"/>
<path id="Vector_71" d="M147.85 32.8213H144.797C144.742 32.8213 144.699 32.7766 144.699 32.7228V21.2238C144.699 16.4005 148.591 12.4702 153.396 12.4153C153.451 12.4153 153.497 12.4599 153.497 12.5149V15.5717C153.497 15.6255 153.453 15.6678 153.401 15.669C150.385 15.7205 147.949 18.1922 147.949 21.2227V32.7217C147.949 32.7766 147.904 32.8201 147.85 32.8201V32.8213Z" fill="#89E3F5"/>
<path id="Vector_72" d="M141.824 29.6671V32.7238C141.824 32.7788 141.778 32.8246 141.723 32.8234C136.918 32.7696 133.026 28.8382 133.026 24.0149V7.67658C133.026 7.62163 133.07 7.57812 133.124 7.57812H136.177C136.232 7.57812 136.276 7.62277 136.276 7.67658V12.7289H141.142C141.197 12.7289 141.241 12.7735 141.241 12.8273V15.3907C141.241 15.4456 141.196 15.4891 141.142 15.4891H136.276V24.0149C136.276 27.0453 138.713 29.5171 141.728 29.5698C141.782 29.5698 141.824 29.6133 141.824 29.6671Z" fill="#89E3F5"/>
</g>
</g>
</g>
</svg>
