<svg width="143" height="83" viewBox="0 0 143 83" fill="none" xmlns="http://www.w3.org/2000/svg">
<g id="Group 43">
<g id="Vector">
<path d="M22.016 41.984C19.456 34.816 17.024 28.032 14.72 21.248C13.952 18.944 13.44 16.512 12.8 14.208C12.544 13.056 12.544 11.904 12.416 10.752C12.416 7.68 13.184 6.784 16.128 6.144C17.024 5.888 18.048 5.76 18.944 5.888C22.272 6.144 23.808 7.296 24.576 10.496C25.472 14.72 26.24 18.944 27.008 23.296C27.52 25.6 27.776 28.032 28.288 31.104L30.208 28.416C34.816 20.992 39.808 13.824 45.568 7.04C47.36 4.992 49.408 3.2 51.456 1.408C52.48 0.511997 53.888 0 55.296 0C55.808 0 56.192 0.255997 56.832 0.383999C56.704 1.792 56.064 2.816 55.424 3.712C50.048 11.648 44.8 19.584 39.424 27.392C36.864 31.232 34.304 34.944 31.488 38.528C30.208 40.32 30.208 41.856 30.72 43.904C33.92 55.04 36.48 66.432 40.704 77.312C40.832 77.568 40.704 77.952 40.832 78.208C38.272 78.976 37.888 78.976 36.736 77.184C35.712 75.648 34.816 73.856 34.176 72.192C31.232 65.408 28.416 58.752 25.6 51.968C25.216 51.2 24.96 50.432 24.448 49.536C23.296 50.304 22.656 51.456 22.016 52.48C17.664 59.264 13.312 66.176 8.96 73.088L4.352 80.384C3.072 82.304 2.816 82.304 0 81.664C0 80.384 0.768 79.488 1.28 78.464C4.864 72.192 8.576 65.92 12.16 59.52C15.488 53.76 18.688 47.872 22.016 41.984Z" fill="#89E3F5"/>
<path d="M58.4302 63.094C56.5942 63.094 54.8482 62.752 53.1922 62.068C51.5722 61.348 50.1322 60.358 48.8722 59.098C47.6482 57.874 46.6762 56.434 45.9562 54.778C45.2722 53.086 44.9302 51.322 44.9302 49.486C44.9302 47.65 45.2722 45.904 45.9562 44.248C46.6762 42.556 47.6482 41.098 48.8722 39.874C50.1322 38.614 51.5722 37.642 53.1922 36.958C54.8482 36.238 56.5942 35.878 58.4302 35.878C62.6782 35.878 66.2782 37.678 69.2302 41.278L65.0182 43.708C63.1462 41.728 60.9502 40.738 58.4302 40.738C57.2422 40.738 56.1082 40.972 55.0282 41.44C53.9842 41.872 53.0662 42.484 52.2742 43.276C51.4822 44.068 50.8522 45.004 50.3842 46.084C49.9162 47.164 49.6822 48.298 49.6822 49.486C49.6822 50.674 49.9162 51.808 50.3842 52.888C50.8522 53.968 51.4822 54.904 52.2742 55.696C53.0662 56.488 53.9842 57.118 55.0282 57.586C56.1082 58.018 57.2422 58.234 58.4302 58.234C60.9502 58.234 63.1462 57.244 65.0182 55.264L69.2302 57.694C66.2782 61.294 62.6782 63.094 58.4302 63.094Z" fill="#89E3F5"/>
<path d="M83.9722 63.094C82.1362 63.094 80.3902 62.734 78.7342 62.014C77.0782 61.294 75.6202 60.304 74.3602 59.044C73.1002 57.784 72.1102 56.326 71.3902 54.67C70.6702 53.014 70.3102 51.268 70.3102 49.432C70.3102 47.56 70.6702 45.778 71.3902 44.086C72.1102 42.394 73.1002 40.918 74.3602 39.658C75.6202 38.398 77.0782 37.426 78.7342 36.742C80.3902 36.022 82.1362 35.662 83.9722 35.662C85.8442 35.662 87.6262 36.022 89.3182 36.742C91.0102 37.426 92.4862 38.398 93.7462 39.658C95.0062 40.918 95.9782 42.394 96.6622 44.086C97.3822 45.778 97.7422 47.56 97.7422 49.432C97.7422 51.268 97.3822 53.014 96.6622 54.67C95.9782 56.326 95.0062 57.784 93.7462 59.044C92.4862 60.304 91.0102 61.294 89.3182 62.014C87.6262 62.734 85.8442 63.094 83.9722 63.094ZM83.9722 40.468C81.5602 40.468 79.4902 41.332 77.7622 43.06C76.9342 43.888 76.2862 44.86 75.8182 45.976C75.3502 47.092 75.1162 48.244 75.1162 49.432C75.1162 50.62 75.3502 51.754 75.8182 52.834C76.2862 53.914 76.9342 54.868 77.7622 55.696C78.5902 56.524 79.5262 57.172 80.5702 57.64C81.6502 58.108 82.7841 58.342 83.9722 58.342C85.1602 58.342 86.3122 58.108 87.4282 57.64C88.5442 57.172 89.4982 56.524 90.2902 55.696C91.0822 54.868 91.7122 53.914 92.1802 52.834C92.6482 51.754 92.8822 50.62 92.8822 49.432C92.8822 48.244 92.6482 47.092 92.1802 45.976C91.7122 44.86 91.0822 43.888 90.2902 43.06C89.4982 42.232 88.5442 41.602 87.4282 41.17C86.3482 40.702 85.1962 40.468 83.9722 40.468Z" fill="#89E3F5"/>
<path d="M113.018 41.008C112.154 40.612 111.38 40.414 110.696 40.414C109.256 40.414 108.068 40.918 107.132 41.926C106.124 43.006 105.62 44.248 105.62 45.652V62.824H100.976V45.652C100.976 43.708 101.462 41.926 102.434 40.306C103.442 38.686 104.81 37.426 106.538 36.526C107.834 35.914 109.22 35.608 110.696 35.608C111.884 35.608 113.018 35.824 114.098 36.256C115.178 36.688 116.312 37.39 117.5 38.362L113.018 41.008Z" fill="#89E3F5"/>
<path d="M120.559 51.376C120.559 52.24 120.865 53.14 121.477 54.076C122.125 55.012 122.863 55.804 123.691 56.452C125.203 57.64 126.967 58.234 128.983 58.234C132.187 58.234 134.797 56.686 136.813 53.59L140.917 56.02C139.513 58.288 137.785 60.034 135.733 61.258C133.681 62.482 131.431 63.094 128.983 63.094C127.147 63.094 125.401 62.752 123.745 62.068C122.089 61.348 120.631 60.358 119.371 59.098C118.111 57.838 117.121 56.38 116.401 54.724C115.717 53.068 115.375 51.322 115.375 49.486C115.375 47.65 115.717 45.904 116.401 44.248C117.121 42.556 118.111 41.08 119.371 39.82C120.595 38.56 122.035 37.588 123.691 36.904C125.383 36.22 127.147 35.878 128.983 35.878C130.819 35.878 132.565 36.22 134.221 36.904C135.913 37.588 137.371 38.56 138.595 39.82C141.259 42.556 142.591 45.724 142.591 49.324C142.591 49.972 142.537 50.656 142.429 51.376H120.559ZM128.983 40.306C127.507 40.306 126.121 40.63 124.825 41.278C123.529 41.926 122.485 42.79 121.693 43.87C120.937 44.914 120.559 46.03 120.559 47.218H137.407C137.407 46.03 137.011 44.914 136.219 43.87C135.463 42.79 134.437 41.926 133.141 41.278C131.845 40.63 130.459 40.306 128.983 40.306Z" fill="#89E3F5"/>
</g>
</g>
</svg>
