<svg width="69" height="69" viewBox="0 0 69 69" fill="none" xmlns="http://www.w3.org/2000/svg">
<rect y="0.318115" width="68.3636" height="68.3636" rx="34.1818" fill="#FFE483"/>
<path d="M34.1818 18.3124C25.2426 18.3124 17.9943 25.5606 17.9943 34.4999C17.9943 43.4391 25.2426 50.6874 34.1818 50.6874C43.1211 50.6874 50.3693 43.4391 50.3693 34.4999C50.3693 25.5606 43.1211 18.3124 34.1818 18.3124ZM34.9876 42.3479L34.9948 43.4933C34.9948 43.6523 34.8647 43.786 34.7057 43.786H33.6796C33.5206 43.786 33.3905 43.6559 33.3905 43.4969V42.3624C30.1819 42.1239 28.6716 40.2956 28.509 38.3083C28.4945 38.1385 28.6282 37.9939 28.798 37.9939H30.4674C30.6083 37.9939 30.7311 38.0951 30.7528 38.2324C30.9371 39.3778 31.8296 40.2342 33.4303 40.4473V35.2912L32.5378 35.0635C30.648 34.6119 28.8486 33.434 28.8486 30.9914C28.8486 28.3573 30.8504 26.9409 33.4086 26.6916V25.4992C33.4086 25.3402 33.5387 25.2101 33.6976 25.2101H34.713C34.872 25.2101 35.002 25.3402 35.002 25.4992V26.6807C37.4771 26.9301 39.3344 28.3754 39.5512 30.6264C39.5692 30.7963 39.4355 30.9444 39.2621 30.9444H37.6397C37.4952 30.9444 37.3724 30.836 37.3543 30.6951C37.2098 29.64 36.3642 28.7801 34.9876 28.5922V33.4448L35.9054 33.658C38.2468 34.2361 39.8402 35.3562 39.8402 37.8638C39.8402 40.5846 37.8168 42.1022 34.9876 42.3479ZM31.0961 30.8252C31.0961 31.7429 31.6634 32.4548 32.8847 32.8956C33.0545 32.9642 33.2243 33.0184 33.4266 33.0762V28.5958C32.0933 28.7656 31.0961 29.5135 31.0961 30.8252ZM35.3056 35.7103C35.2044 35.6886 35.1032 35.6634 34.9876 35.6308V40.4618C36.5268 40.3245 37.5891 39.479 37.5891 38.0626C37.5891 36.9533 37.0146 36.2306 35.3056 35.7103Z" fill="#02083E"/>
</svg>
