<svg width="69" height="69" viewBox="0 0 69 69" fill="none" xmlns="http://www.w3.org/2000/svg">
<rect y="0.318115" width="68.3636" height="68.3636" rx="34.1818" fill="#FF7030"/>
<path fill-rule="evenodd" clip-rule="evenodd" d="M27.7222 19.0833H40.6429C45.4052 19.0833 48.0568 21.8274 48.0568 26.5295V42.4549C48.0568 47.2341 45.4052 49.9166 40.6429 49.9166H27.7222C23.0356 49.9166 20.3068 47.2341 20.3068 42.4549V26.5295C20.3068 21.8274 23.0356 19.0833 27.7222 19.0833ZM28.1385 26.2674V26.252H32.7465C33.411 26.252 33.9506 26.7916 33.9506 27.453C33.9506 28.1328 33.411 28.6724 32.7465 28.6724H28.1385C27.474 28.6724 26.936 28.1328 26.936 27.4699C26.936 26.807 27.474 26.2674 28.1385 26.2674ZM28.1385 35.6408H40.2252C40.8881 35.6408 41.4277 35.1012 41.4277 34.4383C41.4277 33.7753 40.8881 33.2342 40.2252 33.2342H28.1385C27.474 33.2342 26.936 33.7753 26.936 34.4383C26.936 35.1012 27.474 35.6408 28.1385 35.6408ZM28.1385 42.6862H40.2252C40.8403 42.6245 41.3043 42.0988 41.3043 41.4837C41.3043 40.8516 40.8403 40.3274 40.2252 40.2658H28.1385C27.676 40.2195 27.2289 40.4353 26.9822 40.8362C26.7356 41.2216 26.7356 41.7303 26.9822 42.1312C27.2289 42.5166 27.676 42.7478 28.1385 42.6862Z" fill="#02083E"/>
</svg>
