<svg width="69" height="69" viewBox="0 0 69 69" fill="none" xmlns="http://www.w3.org/2000/svg">
<rect width="69" height="69" rx="34.5" fill="#76E2F4"/>
<path fill-rule="evenodd" clip-rule="evenodd" d="M37.9694 27.8547C37.9694 32.0006 34.5768 35.323 30.3433 35.323C26.1113 35.323 22.7172 32.0006 22.7172 27.8547C22.7172 23.7088 26.1113 20.3864 30.3433 20.3864C34.5768 20.3864 37.9694 23.7088 37.9694 27.8547ZM18.8182 43.7796C18.8182 39.9417 24.1273 38.9815 30.3433 38.9815C36.593 38.9815 41.8684 39.9748 41.8684 43.8156C41.8684 47.6535 36.5592 48.6137 30.3433 48.6137C24.0935 48.6137 18.8182 47.6204 18.8182 43.7796ZM41.0446 27.99C41.0446 30.1013 40.3971 32.0713 39.2616 33.7077C39.1435 33.876 39.2478 34.103 39.4534 34.139C39.7388 34.1856 40.0319 34.2141 40.3311 34.2202C43.3079 34.2968 45.9794 32.4199 46.7174 29.5934C47.8115 25.3994 44.6015 21.6337 40.5122 21.6337C40.0688 21.6337 39.6437 21.6788 39.2294 21.7614C39.1726 21.7734 39.1113 21.8005 39.0806 21.8486C39.0407 21.9102 39.0698 21.9898 39.1097 22.0424C40.3388 23.7299 41.0446 25.7841 41.0446 27.99ZM45.9748 37.1695C47.9757 37.5527 49.2907 38.3326 49.8355 39.4701C50.2973 40.4018 50.2973 41.4837 49.8355 42.4154C49.0023 44.1765 46.3139 44.743 45.269 44.8888C45.0526 44.9189 44.8793 44.7385 44.9023 44.5252C45.4363 39.6445 41.1905 37.3303 40.0918 36.7984C40.0458 36.7728 40.0351 36.7368 40.0397 36.7127C40.0427 36.6977 40.0627 36.6736 40.098 36.6691C42.4748 36.6241 45.0312 36.9441 45.9748 37.1695Z" fill="#02083E"/>
</svg>
