<svg width="54" height="52" viewBox="0 0 54 52" fill="none" xmlns="http://www.w3.org/2000/svg">
<path d="M31.7573 9.22434C31.7573 8.21082 31.4567 7.22005 30.8936 6.37733C30.3306 5.53461 29.5302 4.87779 28.5938 4.48993C27.6575 4.10207 26.6271 4.00059 25.6331 4.19832C24.639 4.39605 23.7259 4.88411 23.0092 5.60078C22.2926 6.31746 21.8045 7.23055 21.6068 8.22461C21.409 9.21866 21.5105 10.249 21.8984 11.1854C22.2862 12.1218 22.9431 12.9221 23.7858 13.4852C24.6285 14.0483 25.6193 14.3488 26.6328 14.3488C27.9914 14.3473 29.294 13.8069 30.2547 12.8462C31.2154 11.8855 31.7558 10.583 31.7573 9.22434ZM26.6328 12.299C26.0247 12.299 25.4302 12.1187 24.9246 11.7809C24.419 11.443 24.0249 10.9628 23.7921 10.401C23.5594 9.83915 23.4985 9.22093 23.6172 8.6245C23.7358 8.02807 24.0287 7.48021 24.4587 7.05021C24.8887 6.6202 25.4365 6.32737 26.0329 6.20873C26.6294 6.09009 27.2476 6.15098 27.8094 6.3837C28.3712 6.61641 28.8515 7.0105 29.1893 7.51614C29.5272 8.02177 29.7075 8.61623 29.7075 9.22434C29.7065 10.0395 29.3823 10.821 28.8059 11.3974C28.2295 11.9738 27.448 12.2981 26.6328 12.299Z" fill="black"/>
<path d="M17.4086 35.8716C17.4086 34.858 17.1081 33.8673 16.545 33.0245C15.9819 32.1818 15.1816 31.525 14.2452 31.1372C13.3088 30.7493 12.2785 30.6478 11.2844 30.8455C10.2904 31.0433 9.37727 31.5313 8.6606 32.248C7.94393 32.9647 7.45587 33.8778 7.25814 34.8718C7.06041 35.8659 7.16189 36.8962 7.54975 37.8326C7.93761 38.769 8.59443 39.5693 9.43715 40.1324C10.2799 40.6955 11.2706 40.996 12.2842 40.996C13.6428 40.9945 14.9453 40.4541 15.906 39.4934C16.8667 38.5327 17.4071 37.2302 17.4086 35.8716ZM12.2842 38.9463C11.676 38.9463 11.0816 38.7659 10.576 38.4281C10.0703 38.0902 9.67623 37.61 9.44351 37.0482C9.2108 36.4864 9.14991 35.8681 9.26854 35.2717C9.38718 34.6753 9.68002 34.1274 10.11 33.6974C10.54 33.2674 11.0879 32.9746 11.6843 32.8559C12.2807 32.7373 12.899 32.7982 13.4608 33.0309C14.0226 33.2636 14.5028 33.6577 14.8407 34.1634C15.1785 34.669 15.3588 35.2634 15.3588 35.8716C15.3579 36.6867 15.0337 37.4682 14.4572 38.0446C13.8808 38.6211 13.0993 38.9453 12.2842 38.9463Z" fill="black"/>
<path d="M40.9812 51.2451C43.3138 51.2453 45.5984 50.5821 47.5683 49.333C49.5382 48.0838 51.1123 46.3002 52.1069 44.1903C53.1015 42.0803 53.4755 39.7311 53.1854 37.4166C52.8952 35.1021 51.9529 32.9178 50.4683 31.1187L48.8879 32.4254C49.7695 33.494 50.4252 34.7302 50.8153 36.0595C51.2054 37.3887 51.3219 38.7832 51.1576 40.1587C50.9933 41.5342 50.5518 42.8621 49.8596 44.0621C49.1674 45.262 48.239 46.3091 47.1306 47.14C47.1306 45.5091 46.4827 43.945 45.3295 42.7917C44.1762 41.6385 42.6121 40.9906 40.9812 40.9906C39.3503 40.9906 37.7862 41.6385 36.6329 42.7917C35.4797 43.945 34.8318 45.5091 34.8318 47.14C33.7386 46.3209 32.8202 45.2914 32.1307 44.1121C31.4411 42.9329 30.9943 41.6276 30.8165 40.2732C30.6388 38.9187 30.7336 37.5424 31.0955 36.2252C31.4574 34.9079 32.079 33.6763 32.9238 32.6028C33.7686 31.5293 34.8195 30.6355 36.0148 29.9741C37.21 29.3126 38.5255 28.8969 39.8838 28.7512C41.242 28.6056 42.6157 28.733 43.924 29.1259C45.2324 29.5189 46.4489 30.1695 47.5021 31.0395L48.8076 29.4591C46.2954 27.3858 43.0628 26.3944 39.8202 26.7029C36.5775 27.0115 33.5899 28.5946 31.5137 31.1045L27.6575 27.2483V24.5547C29.5404 24.3972 31.3617 23.808 32.98 22.8328C34.5983 21.8576 35.9702 20.5227 36.9892 18.9316C38.0082 17.3405 38.6469 15.536 38.8557 13.6581C39.0645 11.7802 38.8379 9.87951 38.1934 8.1034C37.5488 6.32729 36.5037 4.72356 35.1392 3.41666C33.7747 2.10975 32.1273 1.13481 30.3251 0.567492C28.5228 0.000172087 26.6141 -0.144275 24.747 0.14536C22.8799 0.434994 21.1046 1.15092 19.5589 2.23759L20.7395 3.91291C22.9403 2.36486 25.6617 1.74458 28.316 2.18602C30.9703 2.62746 33.3444 4.0952 34.9257 6.27226C36.507 8.44933 37.1685 11.161 36.7674 13.8217C36.3663 16.4824 34.9348 18.8785 32.782 20.4927C32.782 18.8618 32.1341 17.2976 30.9809 16.1444C29.8277 14.9912 28.2636 14.3433 26.6326 14.3433C25.0017 14.3433 23.4376 14.9912 22.2844 16.1444C21.1311 17.2976 20.4833 18.8618 20.4833 20.4927C19.3286 19.6272 18.3699 18.5276 17.6698 17.2658C16.9697 16.0041 16.5442 14.6086 16.421 13.1709C16.2979 11.7332 16.4799 10.2857 16.9551 8.92323C17.4303 7.56077 18.1881 6.31409 19.1787 5.26488L17.6882 3.85757C16.0994 5.54111 15.018 7.63887 14.5684 9.90963C14.1187 12.1804 14.319 14.532 15.1462 16.694C15.9735 18.8559 17.3941 20.7406 19.2448 22.1312C21.0954 23.5217 23.3009 24.3618 25.6077 24.5547V27.2479L21.7516 31.1041C20.0491 29.0522 17.7256 27.6095 15.1316 26.9935C12.5375 26.3776 9.81347 26.6218 7.37032 27.6893C4.92716 28.7568 2.89734 30.5898 1.58698 32.9118C0.276616 35.2337 -0.243241 37.9188 0.105806 40.5621C0.454853 43.2053 1.65388 45.6634 3.52206 47.5657C5.39024 49.4679 7.82627 50.7111 10.4628 51.1079C13.0993 51.5046 15.7933 51.0333 18.1386 49.7651C20.4839 48.4969 22.3532 46.5006 23.4647 44.0771L21.6022 43.2211C20.8888 44.7707 19.7996 46.1176 18.4335 47.1394C18.4335 45.5084 17.7856 43.9443 16.6324 42.7911C15.4791 41.6379 13.915 40.99 12.2841 40.99C10.6532 40.99 9.08904 41.6379 7.93581 42.7911C6.78258 43.9443 6.1347 45.5084 6.1347 47.1394C4.7378 46.0909 3.63209 44.7027 2.92256 43.1067C2.21303 41.5107 1.92322 39.7598 2.08067 38.0203C2.23811 36.2808 2.83757 34.6105 3.82213 33.1678C4.8067 31.7251 6.14368 30.5581 7.70613 29.7774C9.26858 28.9968 11.0046 28.6285 12.7495 28.7075C14.4943 28.7865 16.19 29.3101 17.6755 30.2288C19.161 31.1474 20.387 32.4305 21.2372 33.9563C22.0874 35.482 22.5334 37.1997 22.5331 38.9463C22.5332 39.5717 22.4766 40.1958 22.3641 40.811L24.38 41.1813C24.5151 40.4439 24.583 39.6959 24.5828 38.9463C24.5855 36.793 24.0192 34.6773 22.9415 32.8131L26.6326 29.1219L30.3238 32.8131C29.2468 34.6826 28.6807 36.8026 28.6824 38.9601C28.6841 41.1177 29.2535 43.2368 30.3335 45.1046C31.4135 46.9723 32.9659 48.5231 34.8349 49.6009C36.7039 50.6788 38.8237 51.2458 40.9812 51.2451ZM36.8816 47.1455C36.8816 46.0582 37.3135 45.0155 38.0824 44.2467C38.8512 43.4778 39.8939 43.0459 40.9812 43.0459C42.0685 43.0459 43.1112 43.4778 43.8801 44.2467C44.6489 45.0155 45.0808 46.0582 45.0808 47.1455V48.337C43.7882 48.903 42.3923 49.1953 40.9812 49.1953C39.5701 49.1953 38.1742 48.903 36.8816 48.337V47.1455ZM8.18449 47.1455C8.18449 46.0582 8.61641 45.0155 9.38523 44.2467C10.1541 43.4778 11.1968 43.0459 12.2841 43.0459C13.3714 43.0459 14.4141 43.4778 15.1829 44.2467C15.9517 45.0155 16.3837 46.0582 16.3837 47.1455V48.3334C15.0916 48.9012 13.6958 49.1947 12.2845 49.1953C10.8731 49.1959 9.47704 48.9036 8.18449 48.337V47.1455ZM22.5331 20.4982C22.5331 19.4109 22.965 18.3682 23.7338 17.5993C24.5026 16.8305 25.5454 16.3986 26.6326 16.3986C27.7199 16.3986 28.7627 16.8305 29.5315 17.5993C30.3003 18.3682 30.7322 19.4109 30.7322 20.4982V21.6896C29.4396 22.2557 28.0438 22.548 26.6326 22.548C25.2215 22.548 23.8257 22.2557 22.5331 21.6896V20.4982Z" fill="black"/>
<path d="M46.1057 35.8716C46.1057 34.858 45.8051 33.8673 45.242 33.0245C44.6789 32.1818 43.8786 31.525 42.9422 31.1372C42.0059 30.7493 40.9755 30.6478 39.9814 30.8455C38.9874 31.0433 38.0743 31.5313 37.3576 32.248C36.6409 32.9647 36.1529 33.8778 35.9552 34.8718C35.7574 35.8659 35.8589 36.8962 36.2468 37.8326C36.6346 38.769 37.2914 39.5693 38.1342 40.1324C38.9769 40.6955 39.9677 40.996 40.9812 40.996C42.3398 40.9945 43.6424 40.4541 44.6031 39.4934C45.5637 38.5327 46.1041 37.2302 46.1057 35.8716ZM40.9812 38.9463C40.3731 38.9463 39.7786 38.7659 39.273 38.4281C38.7673 38.0902 38.3733 37.61 38.1405 37.0482C37.9078 36.4864 37.8469 35.8681 37.9656 35.2717C38.0842 34.6753 38.377 34.1274 38.807 33.6974C39.237 33.2674 39.7849 32.9746 40.3813 32.8559C40.9778 32.7373 41.596 32.7982 42.1578 33.0309C42.7196 33.2636 43.1998 33.6577 43.5377 34.1634C43.8755 34.669 44.0559 35.2634 44.0559 35.8716C44.0549 36.6867 43.7307 37.4682 43.1543 38.0446C42.5779 38.6211 41.7963 38.9453 40.9812 38.9463Z" fill="black"/>
</svg>
