<svg width="48" height="48" viewBox="0 0 48 48" fill="none" xmlns="http://www.w3.org/2000/svg">
<path d="M45.7307 35.5966H11.9969V25.7385C11.9969 25.224 11.5799 24.807 11.0655 24.807C10.5511 24.807 10.1341 25.224 10.1341 25.7385V35.5966C10.1341 36.6237 10.9697 37.4594 11.9968 37.4594H45.7306V45.7307H41.5796V43.3254C41.5796 42.811 41.1626 42.394 40.6482 42.394C40.1338 42.394 39.7168 42.811 39.7168 43.3254V45.7307H34.5872V41.6864C34.5872 41.1719 34.1702 40.7549 33.6558 40.7549C33.1414 40.7549 32.7244 41.1719 32.7244 41.6864V45.7307H27.5947V43.3254C27.5947 42.811 27.1777 42.394 26.6633 42.394C26.1489 42.394 25.7319 42.811 25.7319 43.3254V45.7307H20.6023V41.6864C20.6023 41.1719 20.1853 40.7549 19.6709 40.7549C19.1564 40.7549 18.7394 41.1719 18.7394 41.6864V45.7307H13.6099V43.3254C13.6099 42.811 13.1929 42.394 12.6784 42.394C12.164 42.394 11.747 42.811 11.747 43.3254V45.7307H1.86274V42.209H5.65228C6.16669 42.209 6.58369 41.792 6.58369 41.2776C6.58369 40.7632 6.16669 40.3462 5.65228 40.3462H1.86274V35.2166H4.01319C4.5276 35.2166 4.9446 34.7996 4.9446 34.2852C4.9446 33.7708 4.5276 33.3538 4.01319 33.3538H1.86274V28.2242H5.65228C6.16669 28.2242 6.58369 27.8072 6.58369 27.2928C6.58369 26.7784 6.16669 26.3614 5.65228 26.3614H1.86274V21.2318H4.01319C4.5276 21.2318 4.9446 20.8148 4.9446 20.3004C4.9446 19.7859 4.5276 19.3689 4.01319 19.3689H1.86274V14.2394H5.65228C6.16669 14.2394 6.58369 13.8224 6.58369 13.3079C6.58369 12.7935 6.16669 12.3765 5.65228 12.3765H1.86274V7.24712H4.01319C4.5276 7.24712 4.9446 6.83012 4.9446 6.3157C4.9446 5.80128 4.5276 5.38428 4.01319 5.38428H1.86274V1.86274H10.1341V17.3898C10.1341 17.9042 10.5511 18.3212 11.0655 18.3212C11.5799 18.3212 11.9969 17.9042 11.9969 17.3898V1.86274C11.9969 0.835674 11.1612 0 10.1341 0H1.86274C0.835674 0 0 0.835674 0 1.86274V45.7307C0 46.7577 0.835674 47.5934 1.86274 47.5934H45.7307C46.7578 47.5934 47.5934 46.7577 47.5934 45.7307V37.4594C47.5934 36.4323 46.7578 35.5966 45.7307 35.5966Z" fill="black"/>
<path d="M11.0974 22.4958C11.6118 22.4958 12.0289 22.0788 12.0289 21.5644C12.0289 21.0499 11.6118 20.6329 11.0974 20.6329C10.583 20.6329 10.166 21.0499 10.166 21.5644C10.166 22.0788 10.583 22.4958 11.0974 22.4958Z" fill="black"/>
</svg>
