<svg width="50" height="56" viewBox="0 0 50 56" fill="none" xmlns="http://www.w3.org/2000/svg">
<path d="M48.0378 46.2411L49.3027 43.0457C49.4225 42.7429 49.4683 42.4164 49.4361 42.0928C49.404 41.7692 49.295 41.4577 49.118 41.1839C48.9409 40.91 48.701 40.6817 48.4177 40.5174C48.1344 40.3531 47.8158 40.2577 47.4881 40.2388L45.6688 29.5152C45.6296 29.2844 45.4995 29.0785 45.3071 28.9427C45.1147 28.807 44.8757 28.7525 44.6427 28.7913C44.4097 28.8301 44.2018 28.9589 44.0648 29.1496C43.9277 29.3402 43.8727 29.5769 43.9119 29.8077L45.681 40.2352H35.1222L35.7565 38.0361C35.8449 37.7297 35.8603 37.4071 35.8014 37.0938C35.7426 36.7805 35.6111 36.485 35.4174 36.2306C35.2237 35.9762 34.973 35.7698 34.685 35.6277C34.3971 35.4856 34.0798 35.4116 33.7581 35.4116H33.7126C34.6219 32.5428 35.1678 29.5732 35.3375 26.571C35.4245 25.0479 35.4092 23.5208 35.2917 21.9998H47.3678C47.4162 21.9998 47.4638 22.0115 47.5065 22.0339C47.5493 22.0562 47.5859 22.0886 47.6131 22.1282C47.6403 22.1678 47.6574 22.2133 47.6628 22.2609C47.6682 22.3085 47.6618 22.3567 47.6442 22.4013L46.2005 26.0484C46.1789 26.1036 46.1409 26.1509 46.0915 26.1843C46.0421 26.2176 45.9837 26.2353 45.924 26.2351H37.3515C37.1153 26.2351 36.8887 26.328 36.7217 26.4935C36.5547 26.659 36.4608 26.8834 36.4608 27.1174C36.4608 27.3515 36.5547 27.5759 36.7217 27.7414C36.8887 27.9068 37.1153 27.9998 37.3515 27.9998H45.924C46.3422 28.0015 46.751 27.8774 47.0965 27.644C47.442 27.4106 47.7079 27.0789 47.859 26.6926L49.3027 23.0455C49.4263 22.7334 49.471 22.3961 49.4331 22.0629C49.3951 21.7298 49.2756 21.4109 49.0849 21.1339C48.8942 20.8569 48.6381 20.6302 48.3389 20.4736C48.0396 20.3169 47.7063 20.235 47.3678 20.235H43.1482C44.5219 18.6633 45.2691 16.6488 45.2492 14.57C45.2294 12.4911 44.444 10.4909 43.0406 8.94519C41.6371 7.39946 39.7122 6.41454 37.6274 6.17545C35.5427 5.93635 33.4415 6.45953 31.7186 7.64672C31.5302 7.78266 31.4031 7.98634 31.3646 8.21406C31.326 8.44178 31.3791 8.6754 31.5125 8.86477C31.6458 9.05415 31.8488 9.1842 32.0779 9.22701C32.3069 9.26983 32.5438 9.222 32.7376 9.09379C34.2291 8.07576 36.0677 7.68632 37.849 8.01116C39.6303 8.336 41.2084 9.3485 42.2361 10.8259C43.2638 12.3033 43.6569 14.1247 43.329 15.8892C43.0011 17.6538 41.979 19.217 40.4875 20.235H35.1059C34.6573 16.8458 33.6473 13.5531 32.1167 10.4896C32.0656 10.3845 31.994 10.2905 31.906 10.2131C31.818 10.1356 31.7153 10.0762 31.604 10.0383C31.4927 10.0004 31.3749 9.98471 31.2574 9.99218C31.1399 9.99964 31.0251 10.0301 30.9195 10.0818C30.814 10.1335 30.7199 10.2054 30.6426 10.2934C30.5653 10.3813 30.5063 10.4836 30.4692 10.5942C30.432 10.7049 30.4174 10.8218 30.4261 10.9381C30.4348 11.0544 30.4667 11.1678 30.52 11.2718C35.6714 21.5895 33.084 31.7531 31.8376 35.4114H28.9588C29.8434 32.6191 30.3841 29.7311 30.5691 26.8103C30.9223 21.2146 29.9406 15.9231 27.651 11.0829C27.6019 10.977 27.5323 10.8817 27.4459 10.8026C27.3595 10.7235 27.2582 10.6622 27.1478 10.6221C27.0374 10.582 26.92 10.5639 26.8026 10.569C26.6851 10.5741 26.5697 10.6021 26.4632 10.6516C26.3568 10.701 26.2612 10.7708 26.1821 10.857C26.103 10.9432 26.0419 11.0441 26.0024 11.1538C25.9628 11.2636 25.9456 11.3799 25.9517 11.4963C25.9578 11.6126 25.9871 11.7266 26.0379 11.8317C30.8271 21.9565 28.2996 31.8394 27.0838 35.4114H6.36686L18.6893 20.496C18.7802 20.3859 18.843 20.2557 18.8721 20.1165C18.9013 19.9772 18.8961 19.833 18.8569 19.6962C18.8177 19.5594 18.7457 19.434 18.647 19.3307C18.5483 19.2274 18.4259 19.1492 18.2901 19.1029L11.0765 16.6405C10.8622 16.5678 10.628 16.5783 10.4213 16.67C9.5753 17.0451 7.07981 17.8509 5.71033 17.0837C5.12565 16.7562 4.78646 16.148 4.6734 15.2241C4.667 15.1661 4.67811 15.1075 4.70532 15.0558C4.73252 15.0041 4.77461 14.9615 4.82625 14.9335L23.1646 4.97188C23.3042 4.89607 23.4207 4.78462 23.502 4.6491C23.5833 4.51358 23.6265 4.35894 23.6271 4.20128L23.6342 2.1468C25.7483 4.12469 27.598 6.3625 29.1385 8.80567C29.1992 8.90571 29.2794 8.99281 29.3744 9.06192C29.4694 9.13104 29.5773 9.1808 29.6918 9.20832C29.8063 9.23584 29.9252 9.24057 30.0416 9.22224C30.158 9.20391 30.2696 9.16288 30.3698 9.10153C30.4701 9.04018 30.5571 8.95973 30.6257 8.86484C30.6944 8.76995 30.7434 8.66251 30.7698 8.54874C30.7962 8.43497 30.7996 8.31714 30.7797 8.20206C30.7599 8.08699 30.7171 7.97697 30.654 7.87837C28.9058 5.10827 26.7831 2.58824 24.3449 0.388434C24.133 0.19529 23.869 0.0673568 23.585 0.0202198C23.301 -0.0269172 23.0093 0.00877607 22.7454 0.122952C22.4815 0.237127 22.2569 0.424857 22.0988 0.663272C21.9407 0.901687 21.8561 1.1805 21.8551 1.46574L21.8474 3.67481L3.96972 13.3861C3.60483 13.5823 3.30809 13.8829 3.11815 14.2486C2.92821 14.6143 2.85389 15.0282 2.90487 15.4364C3.08848 16.9367 3.73872 18.0086 4.83765 18.6222C6.89976 19.7737 9.79869 18.819 10.8173 18.4187L16.5008 20.3587L4.06473 35.4116H2.4652C2.14351 35.4116 1.82621 35.4856 1.53829 35.6277C1.25036 35.7699 0.999674 35.9763 0.805959 36.2307C0.612244 36.4851 0.48079 36.7806 0.421948 37.0939C0.363106 37.4072 0.378482 37.7297 0.466865 38.0361L2.08515 43.647H2.07838C1.52736 43.6476 0.999076 43.8647 0.609439 44.2507C0.219803 44.6367 0.00062867 45.16 0 45.7058V53.9412C0.00062867 54.487 0.219803 55.0103 0.609439 55.3963C0.999076 55.7823 1.52736 55.9994 2.07838 56H34.1449C34.6959 55.9994 35.2242 55.7823 35.6138 55.3963C36.0035 55.0103 36.2226 54.487 36.2233 53.9412V47.9999H47.9216C48.0004 47.9999 48.0759 48.0309 48.1316 48.0861C48.1872 48.1412 48.2185 48.2161 48.2185 48.2941V53.9412C48.2185 54.0192 48.1872 54.094 48.1316 54.1491C48.0759 54.2043 48.0004 54.2353 47.9216 54.2353H37.8266C37.5904 54.2353 37.3638 54.3282 37.1968 54.4937C37.0297 54.6592 36.9359 54.8836 36.9359 55.1176C36.9359 55.3517 37.0297 55.5761 37.1968 55.7416C37.3638 55.907 37.5904 56 37.8266 56H47.9216C48.4726 55.9993 49.0009 55.7822 49.3905 55.3963C49.7802 55.0103 49.9993 54.487 50 53.9412V48.2941C49.9991 47.7685 49.7954 47.2631 49.4306 46.8814C49.0658 46.4998 48.5675 46.2707 48.0378 46.2411ZM2.22815 37.2933C2.2556 37.2566 2.29144 37.2269 2.33272 37.2065C2.37401 37.1862 2.41957 37.1759 2.46568 37.1763H33.7581C33.804 37.1764 33.8493 37.187 33.8904 37.2074C33.9314 37.2277 33.9672 37.2572 33.9948 37.2935C34.0224 37.3299 34.0412 37.3721 34.0496 37.4168C34.0579 37.4615 34.0557 37.5075 34.0431 37.5513L32.2854 43.647H3.93789L2.18017 37.5513C2.16706 37.5076 2.16457 37.4614 2.17291 37.4166C2.18125 37.3717 2.20018 37.3295 2.22815 37.2933ZM34.4418 48.9411H10.3897C10.1534 48.9411 9.92687 49.0341 9.75982 49.1996C9.59278 49.365 9.49893 49.5895 9.49893 49.8235C9.49893 50.0575 9.59278 50.2819 9.75982 50.4474C9.92687 50.6129 10.1534 50.7058 10.3897 50.7058H34.4418V53.9412C34.4418 54.0192 34.4105 54.094 34.3548 54.1491C34.2992 54.2043 34.2236 54.2353 34.1449 54.2353H2.07838C1.99964 54.2353 1.92412 54.2043 1.86844 54.1491C1.81275 54.094 1.78147 54.0192 1.78147 53.9412V50.7058H6.82898C7.06522 50.7058 7.29178 50.6129 7.45882 50.4474C7.62587 50.2819 7.71972 50.0575 7.71972 49.8235C7.71972 49.5895 7.62587 49.365 7.45882 49.1996C7.29178 49.0341 7.06522 48.9411 6.82898 48.9411H1.78147V45.7058C1.78147 45.6278 1.81275 45.553 1.86844 45.4978C1.92412 45.4427 1.99964 45.4117 2.07838 45.4117H34.1449C34.2236 45.4117 34.2992 45.4427 34.3548 45.4978C34.4105 45.553 34.4418 45.6278 34.4418 45.7058V48.9411ZM36.2233 46.2352V45.7058C36.2226 45.16 36.0035 44.6367 35.6138 44.2507C35.2242 43.8647 34.6959 43.6476 34.1449 43.647H34.1381L34.6132 41.9999H47.3678C47.4162 41.9999 47.4638 42.0116 47.5065 42.034C47.5493 42.0564 47.5859 42.0888 47.6131 42.1283C47.6403 42.1679 47.6574 42.2135 47.6628 42.2611C47.6682 42.3087 47.6618 42.3568 47.6442 42.4014L46.2005 46.0485C46.1789 46.1037 46.1409 46.1511 46.0915 46.1844C46.0421 46.2178 45.9837 46.2355 45.924 46.2352H36.2233Z" fill="black"/>
</svg>
