<svg width="53" height="53" viewBox="0 0 53 53" fill="none" xmlns="http://www.w3.org/2000/svg">
<path d="M52.0469 15.559L37.4398 0.951987C36.1705 -0.317329 34.1054 -0.317329 32.8361 0.951987L27.5908 6.19747C26.3215 7.46678 26.3215 9.5323 27.5908 10.8016L28.5895 11.8004L13.1045 16.9933C12.8057 17.0932 12.5687 17.3241 12.4612 17.6197L0.0626645 51.6102C-0.0752226 51.9883 0.0185892 52.412 0.303259 52.6967C0.500588 52.8945 0.765444 53 1.03515 53C1.15404 53 1.27413 52.9794 1.38978 52.9373L16.9844 47.2487C17.5214 47.0529 17.7979 46.4585 17.6022 45.9215C17.4061 45.3845 16.8121 45.1083 16.2751 45.304L5.07351 49.3898L21.4327 33.0306C22.0842 33.416 22.8189 33.6089 23.5536 33.6089C24.6203 33.6089 25.6866 33.2029 26.4986 32.3909C28.1225 30.767 28.1225 28.1248 26.4986 26.5009C24.8747 24.8769 22.2326 24.8769 20.6087 26.5009C19.2375 27.8721 19.024 29.9695 19.969 31.5668L3.60972 47.9264L14.2347 18.7976L30.2244 13.4357L39.5635 22.775L34.2017 38.7646L24.0736 42.4593C23.5366 42.6554 23.2601 43.2494 23.4558 43.7864C23.6519 44.3234 24.2459 44.6 24.7829 44.4039L35.3792 40.5385C35.6751 40.4306 35.9056 40.194 36.0059 39.8956L41.1983 24.4099L42.1971 25.4087C42.8121 26.0237 43.6297 26.3622 44.4991 26.3622C45.3689 26.3622 46.1861 26.0237 46.8011 25.4087L52.0465 20.1632C52.6615 19.5481 53 18.7309 53 17.8611C53 16.9917 52.6615 16.1741 52.0469 15.559ZM22.0724 27.9647C22.4804 27.5563 23.017 27.3521 23.5536 27.3521C24.0902 27.3521 24.6264 27.5563 25.0348 27.9647C25.8516 28.7815 25.8516 30.1103 25.0348 30.9271C24.218 31.7439 22.8893 31.7439 22.0724 30.9271C21.2552 30.1103 21.2552 28.7815 22.0724 27.9647ZM50.5831 18.6994L48.6883 20.5942C48.6661 20.5667 48.6418 20.5396 48.6159 20.5138L40.0714 11.969C39.6674 11.5651 39.0119 11.5651 38.6076 11.969C38.2036 12.3734 38.2036 13.0289 38.6076 13.4329L47.1521 21.978C47.178 22.0035 47.2051 22.0277 47.2326 22.05L45.3378 23.9452C45.1137 24.1689 44.8161 24.2922 44.4995 24.2922C44.1829 24.2922 43.8849 24.1689 43.6613 23.9448L29.0541 9.3378C28.592 8.87561 28.592 8.12348 29.0541 7.66129L34.2999 2.4158C34.7621 1.95361 35.5142 1.95321 35.9764 2.4158L50.5831 17.0228C50.8071 17.2469 50.9301 17.5445 50.9301 17.8611C50.9305 18.1777 50.8071 18.4757 50.5831 18.6994Z" fill="black"/>
</svg>
