<svg width="62" height="62" viewBox="0 0 62 62" fill="none" xmlns="http://www.w3.org/2000/svg">
<path d="M56.1268 48.8104C56.1276 48.524 56.0716 48.2403 55.962 47.9758C55.8524 47.7112 55.6914 47.471 55.4884 47.2691L51.8906 43.6711L50.5204 45.0412L54.1183 48.6391C54.1637 48.6846 54.1893 48.7461 54.1893 48.8104C54.1893 48.8746 54.1637 48.9362 54.1183 48.9816L48.9809 54.1192C48.9585 54.1417 48.9317 54.1596 48.9024 54.1718C48.873 54.1839 48.8415 54.1902 48.8097 54.1902C48.7778 54.1902 48.7463 54.1839 48.717 54.1718C48.6876 54.1596 48.6609 54.1417 48.6384 54.1192L45.0404 50.5212C44.8824 50.3631 44.6746 50.2646 44.4523 50.2423C44.23 50.2199 44.0067 50.2751 43.8204 50.3985C42.9893 50.9489 42.1237 51.4454 41.229 51.8848L42.0825 53.6241C42.811 53.2667 43.5276 52.8705 44.2214 52.442L47.2686 55.4893C47.6777 55.8974 48.232 56.1266 48.8098 56.1266C49.3877 56.1266 49.942 55.8974 50.3511 55.4893L55.4885 50.3518C55.6915 50.1498 55.8525 49.9096 55.9621 49.645C56.0716 49.3804 56.1276 49.0967 56.1268 48.8104Z" fill="black"/>
<path d="M32.019 11.6514L31.9187 13.5862C34.722 13.7349 37.448 14.5577 39.8655 15.9846C42.283 17.4115 44.3206 19.4006 45.8055 21.7829L47.4492 20.7571C45.7992 18.1103 43.535 15.9005 40.8488 14.3153C38.1626 12.7301 35.1337 11.8163 32.019 11.6514Z" fill="black"/>
<path d="M16.844 17.7707L18.2592 19.094C21.333 15.7898 25.574 13.8141 30.0812 13.5867L29.981 11.6519C24.9726 11.9042 20.2599 14.0992 16.844 17.7707Z" fill="black"/>
<path d="M6.51081 50.3516L11.6485 55.4891C12.0576 55.8972 12.6119 56.1264 13.1897 56.1264C13.7676 56.1264 14.3219 55.8972 14.731 55.4891L17.778 52.4421C20.0658 53.8592 22.568 54.8964 25.1875 55.5134V59.8203C25.1881 60.3982 25.418 60.9522 25.8266 61.3608C26.2352 61.7695 26.7893 61.9993 27.3672 62H34.6328C35.2107 61.9993 35.7647 61.7695 36.1733 61.3608C36.5819 60.9522 36.8118 60.3982 36.8125 59.8203V55.5131C37.9191 55.2514 39.0066 54.9148 40.0676 54.5055L39.3698 52.6982C38.1628 53.1637 36.9188 53.5272 35.6511 53.7848C35.432 53.8292 35.2351 53.948 35.0936 54.1211C34.9522 54.2942 34.8749 54.5108 34.875 54.7344V59.8203C34.875 59.8845 34.8494 59.9461 34.804 59.9916C34.7586 60.037 34.697 60.0625 34.6328 60.0625H27.3672C27.3029 60.0625 27.2413 60.037 27.1959 59.9916C27.1505 59.9461 27.125 59.8845 27.125 59.8203V54.7344C27.125 54.5109 27.0477 54.2943 26.9062 54.1213C26.7648 53.9482 26.5679 53.8294 26.3489 53.785C23.4323 53.1949 20.6578 52.0448 18.1789 50.3986C17.9926 50.2752 17.7694 50.22 17.547 50.2424C17.3247 50.2647 17.1169 50.3633 16.9589 50.5213L13.3611 54.1193C13.3386 54.1418 13.3119 54.1597 13.2825 54.1719C13.2531 54.184 13.2216 54.1903 13.1898 54.1903C13.158 54.1903 13.1265 54.184 13.0971 54.1719C13.0677 54.1597 13.041 54.1418 13.0185 54.1193L7.88086 48.9816C7.85836 48.9591 7.84052 48.9324 7.82834 48.903C7.81616 48.8736 7.80989 48.8421 7.80989 48.8103C7.80989 48.7785 7.81616 48.747 7.82834 48.7176C7.84052 48.6882 7.85836 48.6615 7.88086 48.639L11.4789 45.0411C11.6369 44.8831 11.7355 44.6753 11.7578 44.4529C11.7802 44.2306 11.725 44.0073 11.6016 43.821C10.6766 42.4246 9.90553 40.9322 9.30178 39.3699L7.49445 40.0676C8.0528 41.513 8.74364 42.9037 9.55813 44.2219L6.51081 47.2691C6.10271 47.6782 5.87354 48.2325 5.87354 48.8103C5.87354 49.3882 6.10271 49.9425 6.51081 50.3516Z" fill="black"/>
<path d="M10.5394 19.9483C10.8655 19.3461 11.2228 18.7508 11.6016 18.179C11.725 17.9927 11.7802 17.7694 11.7579 17.5471C11.7355 17.3247 11.637 17.1169 11.479 16.9589L7.8809 13.3609C7.83554 13.3155 7.81005 13.2539 7.81005 13.1897C7.81005 13.1255 7.83554 13.064 7.8809 13.0185L13.0184 7.8809C13.0409 7.8584 13.0676 7.84055 13.097 7.82838C13.1264 7.8162 13.1579 7.80993 13.1897 7.80993C13.2215 7.80993 13.253 7.8162 13.2824 7.82838C13.3118 7.84055 13.3385 7.8584 13.361 7.8809L16.9589 11.479C17.1169 11.637 17.3247 11.7355 17.5471 11.7579C17.7694 11.7802 17.9927 11.725 18.179 11.6016C20.6578 9.95539 23.4323 8.80538 26.3489 8.21524C26.568 8.17079 26.7649 8.05195 26.9064 7.87888C27.0478 7.70581 27.1251 7.48915 27.125 7.26562V2.17969C27.125 2.11546 27.1505 2.05385 27.1959 2.00844C27.2414 1.96302 27.303 1.9375 27.3672 1.9375H34.6328C34.697 1.9375 34.7586 1.96302 34.8041 2.00844C34.8495 2.05385 34.875 2.11546 34.875 2.17969V7.26562C34.875 7.4891 34.9523 7.70571 35.0937 7.87873C35.2352 8.05176 35.4321 8.17056 35.6511 8.215C38.5677 8.80514 41.3422 9.95515 43.821 11.6014C44.0073 11.7248 44.2306 11.78 44.4529 11.7576C44.6753 11.7353 44.8831 11.6367 45.0411 11.4787L48.6389 7.88066C48.6614 7.85816 48.6881 7.84031 48.7175 7.82814C48.7469 7.81596 48.7784 7.80969 48.8102 7.80969C48.842 7.80969 48.8735 7.81596 48.9029 7.82814C48.9323 7.84031 48.959 7.85816 48.9815 7.88066L54.119 13.0183C54.1643 13.0637 54.1898 13.1253 54.1898 13.1895C54.1898 13.2537 54.1643 13.3152 54.119 13.3606L50.521 16.9587C50.363 17.1167 50.2645 17.3245 50.2421 17.5468C50.2198 17.7692 50.275 17.9924 50.3984 18.1787C51.1725 19.3476 51.8392 20.584 52.3905 21.873L54.172 21.1117C53.6792 19.9589 53.1008 18.8445 52.4418 17.7779L55.4889 14.7307C55.6913 14.5283 55.8519 14.288 55.9614 14.0235C56.071 13.7591 56.1273 13.4757 56.1273 13.1894C56.1273 12.9032 56.071 12.6197 55.9614 12.3553C55.8519 12.0908 55.6913 11.8505 55.4889 11.6481L50.3515 6.51085C49.9424 6.10275 49.3881 5.87357 48.8102 5.87357C48.2324 5.87357 47.6781 6.10275 47.2689 6.51085L44.222 9.55793C41.9342 8.14077 39.432 7.10357 36.8125 6.48663V2.17969C36.8118 1.6018 36.582 1.04778 36.1733 0.639159C35.7647 0.230534 35.2107 0.000673019 34.6328 0L27.3672 0C26.7893 0.000673019 26.2353 0.230534 25.8267 0.639159C25.418 1.04778 25.1882 1.6018 25.1875 2.17969V6.48663C22.568 7.10357 20.0658 8.14077 17.778 9.55793L14.7309 6.51085C14.3218 6.10275 13.7675 5.87357 13.1897 5.87357C12.6118 5.87357 12.0575 6.10275 11.6484 6.51085L6.51085 11.6485C6.10273 12.0576 5.87354 12.6119 5.87354 13.1897C5.87354 13.7676 6.10273 14.3218 6.51085 14.7309L9.55817 17.7781C9.30509 18.1878 9.06326 18.6054 8.83561 19.0261L10.5394 19.9483Z" fill="black"/>
<path d="M11.625 35.8438H0V37.7812H11.625V35.8438Z" fill="black"/>
<path d="M14.8118 23.2084L23.5704 20.5579C23.6229 20.542 23.674 20.5218 23.7231 20.4974C24.0631 20.3282 24.4556 20.2981 24.8174 20.4136L27.6693 21.8037L28.5182 20.0621L25.6119 18.6453C25.5798 18.6296 25.5469 18.6157 25.5132 18.6037C24.6719 18.3048 23.7467 18.3483 22.9371 18.7248L14.3879 21.3125H9.6875V23.25H14.5313C14.6263 23.25 14.7209 23.236 14.8118 23.2084Z" fill="black"/>
<path d="M7.75 21.3125H0V23.25H7.75V21.3125Z" fill="black"/>
<path d="M35.1996 43.5728L34.3785 43.0985C33.6472 42.6758 32.7841 42.5423 31.9593 42.7243C31.8539 42.2739 31.6573 41.8498 31.3815 41.4783C31.1057 41.1069 30.7567 40.7959 30.356 40.5648L29.5347 40.0907C28.796 39.6637 27.9232 39.5319 27.0914 39.7218C26.9773 39.2907 26.779 38.8865 26.5079 38.5324C26.2369 38.1783 25.8985 37.8813 25.5122 37.6585L24.691 37.1844C23.9523 36.7574 23.0794 36.6256 22.2477 36.8156C22.1335 36.3845 21.9352 35.9803 21.6642 35.6261C21.3932 35.272 21.0548 34.975 20.6685 34.7523L19.8472 34.2782C19.0682 33.8297 18.143 33.7085 17.2747 33.9411C16.4064 34.1738 15.6658 34.7413 15.2154 35.5193L13.2633 38.9004C13.0407 39.2861 12.8962 39.7117 12.8381 40.1532C12.78 40.5947 12.8094 41.0432 12.9246 41.4733C13.0399 41.9034 13.2387 42.3066 13.5098 42.6599C13.7808 43.0131 14.1188 43.3095 14.5044 43.5322L15.3257 44.0062C15.8391 44.3036 16.422 44.4601 17.0153 44.4599C17.2684 44.4598 17.5206 44.4316 17.7674 44.3757L17.7684 44.3797C17.8826 44.8102 18.081 45.2138 18.3522 45.5672C18.6234 45.9205 18.9619 46.2166 19.3482 46.4383L20.1694 46.9124C20.6829 47.2098 21.2657 47.3663 21.8591 47.366C22.1121 47.3659 22.3644 47.3377 22.6112 47.2818L22.6121 47.2858C22.7264 47.7163 22.9248 48.1199 23.1959 48.4733C23.4671 48.8266 23.8056 49.1227 24.1919 49.3444L25.0132 49.8185C25.5266 50.1159 26.1095 50.2724 26.7028 50.2721C26.9482 50.272 27.1928 50.2455 27.4324 50.1929C27.5377 50.6434 27.7343 51.0675 28.0101 51.439C28.2859 51.8104 28.6349 52.1213 29.0357 52.3525L29.8569 52.8266C30.6358 53.2756 31.561 53.3972 32.4294 53.1646C33.2978 52.932 34.0384 52.3642 34.4885 51.586L35.2082 50.3394C36.0932 50.4651 36.9922 50.2388 37.7122 49.709L45.3821 44.3903L44.278 42.7982L36.5945 48.1263C36.5846 48.1331 36.5749 48.1401 36.5653 48.1474C36.5182 48.1827 36.4689 48.2151 36.4178 48.2443L36.4406 48.2049C36.8892 47.4259 37.0106 46.5007 36.7779 45.6323C36.5453 44.7639 35.9777 44.0232 35.1996 43.5728ZM18.1069 41.8067C18.0288 41.9416 17.96 42.0817 17.901 42.2259C17.6729 42.3993 17.3988 42.5014 17.1129 42.5197C16.827 42.5379 16.5421 42.4713 16.2938 42.3284L15.4726 41.8543C15.1389 41.6616 14.8954 41.3442 14.7956 40.9719C14.6959 40.5997 14.7482 40.2031 14.9409 39.8693L16.8928 36.4881C17.0856 36.1545 17.403 35.9111 17.7753 35.8114C18.1475 35.7117 18.5441 35.7639 18.8779 35.9564L19.6991 36.4304C19.9557 36.579 20.1608 36.8024 20.287 37.0707C20.4131 37.3391 20.4543 37.6395 20.4051 37.9319C20.2752 38.0858 20.1592 38.251 20.0585 38.4254L18.1069 41.8067ZM22.9506 44.7129C22.8725 44.8478 22.8037 44.9879 22.7447 45.1322C22.5167 45.3055 22.2425 45.4077 21.9566 45.4259C21.6707 45.4442 21.3858 45.3776 21.1376 45.2346L20.3163 44.7605C20.0596 44.612 19.8543 44.3887 19.728 44.1203C19.6017 43.852 19.5604 43.5514 19.6096 43.259C19.7398 43.1048 19.8561 42.9394 19.9569 42.7647L21.909 39.3835C21.9867 39.2488 22.0552 39.109 22.1138 38.965C22.3681 38.772 22.6786 38.6676 22.9978 38.6676C23.2521 38.6675 23.5018 38.7346 23.7219 38.8621L24.5431 39.336C24.7997 39.4846 25.0048 39.7081 25.1309 39.9764C25.2571 40.2447 25.2983 40.5452 25.2491 40.8376C25.1192 40.9915 25.0032 41.1566 24.9025 41.331L22.9506 44.7129ZM27.7944 47.7208C27.7449 47.8066 27.6995 47.8937 27.6582 47.982C27.4297 48.1789 27.1456 48.3 26.8453 48.3284C26.5449 48.3569 26.2432 48.2913 25.9817 48.1409L25.1604 47.6668C24.9037 47.5183 24.6985 47.2949 24.5722 47.0266C24.4459 46.7582 24.4045 46.4577 24.4537 46.1652C24.5839 46.0111 24.7002 45.8457 24.801 45.6709L26.7531 42.2897C26.8308 42.1551 26.8993 42.0152 26.958 41.8712C27.2123 41.6783 27.5227 41.5738 27.8419 41.5738C28.0962 41.5738 28.346 41.6409 28.566 41.7683L29.3872 42.2423C29.6648 42.4031 29.8814 42.651 30.0036 42.9476C30.1257 43.2441 30.1466 43.5727 30.0628 43.8824C29.9452 44.0258 29.8395 44.1786 29.7467 44.3392L27.7944 47.7208ZM34.7625 47.2357L32.8105 50.6172C32.6175 50.9507 32.3001 51.1939 31.928 51.2936C31.5558 51.3933 31.1593 51.3413 30.8255 51.1491L30.0042 50.6751C29.7267 50.5143 29.51 50.2664 29.3878 49.9698C29.2657 49.6732 29.2449 49.3446 29.3286 49.035C29.4463 48.8915 29.552 48.7387 29.6448 48.578L31.5968 45.1968C31.6464 45.1111 31.6917 45.0242 31.7328 44.936C31.9613 44.739 32.2454 44.6178 32.5457 44.5893C32.8461 44.5608 33.1479 44.6264 33.4094 44.7769L34.2307 45.2512C34.564 45.4442 34.8072 45.7615 34.9069 46.1335C35.0065 46.5055 34.9546 46.9019 34.7625 47.2357Z" fill="black"/>
<path d="M62 39.7188V37.7813H61.0313C60.947 37.7813 60.863 37.7924 60.7816 37.8142L49.8988 40.7162C49.0648 40.9394 48.1801 40.8774 47.3854 40.5399C46.5907 40.2025 45.9317 39.609 45.5131 38.8539L42.5031 33.4359C42.4359 33.315 42.3436 33.2098 42.2324 33.1276C42.1212 33.0453 41.9936 32.9878 41.8583 32.9589C41.723 32.9301 41.5831 32.9305 41.448 32.9603C41.3129 32.99 41.1857 33.0483 41.075 33.1314L40.8813 33.2767C40.0867 33.8731 39.0934 34.1415 38.1066 34.0262C37.1197 33.911 36.2149 33.421 35.5792 32.6575L33.6815 30.3801C33.5417 30.2123 33.3494 30.0967 33.1356 30.052C32.9219 30.0073 32.6993 30.0361 32.504 30.1338L28.629 32.0713C28.6187 32.0764 28.6085 32.0818 28.5984 32.0873C26.2172 33.3863 23.5773 32.9909 21.6693 31.1142L31.4315 23.179L39.6466 21.3928C39.6708 21.3874 39.695 21.3807 39.7193 21.374C39.9492 21.3048 40.1927 21.2938 40.428 21.3419C40.6632 21.39 40.8828 21.4957 41.0672 21.6496C41.0755 21.6565 41.0839 21.6634 41.0925 21.6699L47.8426 26.9211C47.9655 27.0167 48.1096 27.0812 48.2627 27.1093C48.4159 27.1374 48.5735 27.1281 48.7223 27.0824L53.5661 25.5921L52.9962 23.7402L48.6344 25.0822L42.294 20.1501C41.8697 19.7994 41.3663 19.5576 40.8274 19.4456C40.2885 19.3335 39.7304 19.3547 39.2016 19.5072L30.7942 21.3357C30.6457 21.368 30.5069 21.4347 30.389 21.5306L19.663 30.2493C19.4648 30.4106 19.3384 30.6435 19.3112 30.8975C19.284 31.1515 19.3582 31.406 19.5177 31.6056L19.5877 31.6932C20.8151 33.2274 22.397 34.2409 24.1634 34.6237C25.9509 35.0112 27.7996 34.7255 29.5112 33.7966L32.6848 32.2097L34.0914 33.8976C34.9499 34.9286 36.1387 35.6307 37.456 35.8849C38.7732 36.139 40.1379 35.9296 41.3183 35.292L43.8197 39.7949C44.4474 40.9277 45.4359 41.8181 46.6279 42.3244C47.8199 42.8306 49.147 42.9237 50.398 42.5888L61.1583 39.7188H62Z" fill="black"/>
<path d="M62 21.3125H61.0313C60.9347 21.3125 60.8386 21.3269 60.7463 21.3554L54.9338 23.1438L55.5037 24.9957L61.1766 23.25H62V21.3125Z" fill="black"/>
</svg>
