<svg width="61" height="61" viewBox="0 0 61 61" fill="none" xmlns="http://www.w3.org/2000/svg">
<mask id="mask0_105_1323" style="mask-type:luminance" maskUnits="userSpaceOnUse" x="0" y="0" width="61" height="61">
<path d="M0 0H60.458V60.458H0V0Z" fill="white"/>
</mask>
<g mask="url(#mask0_105_1323)">
<path d="M11.2978 34.0153C9.46809 34.0153 7.98486 35.4987 7.98486 37.3283C7.98486 39.1581 9.46809 40.6413 11.2978 40.6413H11.771C11.771 49.0056 18.5517 55.7863 26.916 55.7863C35.2804 55.7863 42.061 49.0056 42.061 40.6413H42.5343C44.3639 40.6413 45.8473 39.1581 45.8473 37.3283C45.8473 35.4987 44.3639 34.0153 42.5343 34.0153" stroke="black" stroke-width="2" stroke-miterlimit="10" stroke-linecap="round" stroke-linejoin="round"/>
<path d="M20.2901 14.8916C14.2435 16.8791 9.87793 22.5709 9.87793 29.2824V34.0153" stroke="black" stroke-width="2" stroke-miterlimit="10" stroke-linecap="round" stroke-linejoin="round"/>
<path d="M15.5571 59.5725V50.8168" stroke="black" stroke-width="2" stroke-miterlimit="10" stroke-linecap="round" stroke-linejoin="round"/>
<path d="M38.2749 59.5725V50.8168" stroke="black" stroke-width="2" stroke-miterlimit="10" stroke-linecap="round" stroke-linejoin="round"/>
<path d="M38.6963 6.56502C39.0216 6.00614 39.2215 5.36507 39.2215 4.67193C39.2215 2.58081 37.5263 0.885629 35.4352 0.885629C33.3441 0.885629 31.649 2.58081 31.649 4.67193C31.649 5.36507 31.8489 6.00614 32.1741 6.56502H25.9696C24.9241 6.56502 24.0764 7.41261 24.0764 8.45811V14.6626C24.6353 14.3374 25.2764 14.1375 25.9696 14.1375C28.0607 14.1375 29.7558 15.8327 29.7558 17.9238C29.7558 20.0148 28.0607 21.71 25.9696 21.71C25.2764 21.71 24.6353 21.5101 24.0764 21.1849V27.3894C24.0764 28.4349 24.9241 29.2825 25.9696 29.2825H32.1741C31.8489 28.7237 31.649 28.0825 31.649 27.3894C31.649 25.2983 33.3441 23.6032 35.4352 23.6032C37.5263 23.6032 39.2215 25.2983 39.2215 27.3894C39.2215 28.0825 39.0216 28.7237 38.6963 29.2825H44.9008C45.9463 29.2825 46.794 28.4349 46.794 27.3894V21.1849C47.3529 21.5101 47.9938 21.71 48.6871 21.71C50.7782 21.71 52.4733 20.0148 52.4733 17.9238C52.4733 15.8327 50.7782 14.1375 48.6871 14.1375C47.9938 14.1375 47.3529 14.3374 46.794 14.6626V8.45811C46.794 7.41261 45.9463 6.56502 44.9008 6.56502H43.0077" stroke="black" stroke-width="2" stroke-miterlimit="10" stroke-linecap="round" stroke-linejoin="round"/>
</g>
</svg>
